<svg xmlns="http://www.w3.org/2000/svg" width="50.227" height="41.491" viewBox="0 0 50.227 41.491"><defs><style>.a{fill:rgba(12, 162, 205, 1);}</style></defs><g transform="translate(0 -32)"><g transform="translate(0 32)"><path class="a" d="M46.951,40.735H37.124V35.276A3.28,3.28,0,0,0,33.848,32H16.378A3.28,3.28,0,0,0,13.1,35.276v5.459H3.276A3.28,3.28,0,0,0,0,44.011V70.216a3.28,3.28,0,0,0,3.276,3.276H46.951a3.28,3.28,0,0,0,3.276-3.276V44.011A3.28,3.28,0,0,0,46.951,40.735ZM15.286,35.276a1.092,1.092,0,0,1,1.092-1.092h17.47a1.093,1.093,0,0,1,1.092,1.092v5.459H15.286Zm32.756,34.94a1.093,1.093,0,0,1-1.092,1.092H3.276a1.093,1.093,0,0,1-1.092-1.092V56.725a9.808,9.808,0,0,0,7.643,3.664h9.827v3.276a1.092,1.092,0,0,0,1.092,1.092h8.735a1.092,1.092,0,0,0,1.092-1.092V60.389H40.4a9.808,9.808,0,0,0,7.643-3.664ZM21.838,62.573V56.021h6.551v6.551ZM48.043,50.562A7.652,7.652,0,0,1,40.4,58.205H30.573V54.93a1.092,1.092,0,0,0-1.092-1.092H20.746a1.092,1.092,0,0,0-1.092,1.092v3.276H9.827a7.652,7.652,0,0,1-7.643-7.643V44.011a1.093,1.093,0,0,1,1.092-1.092H46.951a1.093,1.093,0,0,1,1.092,1.092Z" transform="translate(0 -32)"/></g></g></svg>