<svg xmlns="http://www.w3.org/2000/svg" width="31.065" height="31.065" viewBox="0 0 31.065 31.065"><defs><style>.a{fill:rgba(12, 162, 205, 1);}</style></defs><g transform="translate(0 0)"><path class="a" d="M290.186,199.09a.518.518,0,0,0,.7.226,44.385,44.385,0,0,1,4.581-2.038.518.518,0,0,0-.313-.988,44.4,44.4,0,0,0-4.738,2.1A.518.518,0,0,0,290.186,199.09Z" transform="translate(-272.527 -184.358)"/><path class="a" d="M290.649,96.974a.517.517,0,0,0,.235-.056,44.384,44.384,0,0,1,4.581-2.038.518.518,0,0,0-.313-.988,44.408,44.408,0,0,0-4.738,2.1.518.518,0,0,0,.236.979Z" transform="translate(-272.527 -88.172)"/><path class="a" d="M30.549,7.766a.518.518,0,0,0-.518.518V28.476a1.555,1.555,0,0,1-1.553,1.553H16.052V28.838a15.258,15.258,0,0,1,4.66-.88,26.706,26.706,0,0,1,7.6,1.009A.518.518,0,0,0,29,28.476V5.7a.517.517,0,0,0-.405-.505s-.406-.091-1.1-.218A.518.518,0,0,0,27.3,5.99c.265.049.486.092.657.126V27.788a29.24,29.24,0,0,0-7.248-.865,16.266,16.266,0,0,0-5.157.992,12.129,12.129,0,0,0-4.68-.992,34.89,34.89,0,0,0-7.766.887V6.1a34.08,34.08,0,0,1,7.766-.918,11.226,11.226,0,0,1,4.142.853V26.405a.518.518,0,0,0,.784.444,59.276,59.276,0,0,1,9.734-4.612.518.518,0,0,0,.354-.491V.518a.518.518,0,0,0-.7-.485,55.076,55.076,0,0,0-8.376,4.188.518.518,0,0,0,.549.878,55.338,55.338,0,0,1,7.492-3.824v20.1a58.022,58.022,0,0,0-8.8,4.131V5.7a.518.518,0,0,0-.286-.463,11.989,11.989,0,0,0-4.891-1.09A33.6,33.6,0,0,0,2.448,5.2a.517.517,0,0,0-.375.5V28.476a.518.518,0,0,0,.518.518.51.51,0,0,0,.142-.02,33.259,33.259,0,0,1,8.142-1.015,11.2,11.2,0,0,1,4.142.854V30.03H2.591a1.555,1.555,0,0,1-1.553-1.553V8.284A.518.518,0,1,0,0,8.284V28.476a2.592,2.592,0,0,0,2.589,2.589H28.478a2.592,2.592,0,0,0,2.589-2.589V8.284A.518.518,0,0,0,30.549,7.766Z" transform="translate(-0.002 0)"/><path class="a" d="M290.186,147.89a.518.518,0,0,0,.7.226,44.385,44.385,0,0,1,4.581-2.038.518.518,0,0,0-.313-.988,44.411,44.411,0,0,0-4.738,2.1A.518.518,0,0,0,290.186,147.89Z" transform="translate(-272.527 -136.265)"/><path class="a" d="M290.186,250.29a.518.518,0,0,0,.7.226,44.386,44.386,0,0,1,4.581-2.038.518.518,0,0,0-.313-.988,44.411,44.411,0,0,0-4.738,2.1A.518.518,0,0,0,290.186,250.29Z" transform="translate(-272.527 -232.452)"/><path class="a" d="M92.7,153.931a16.432,16.432,0,0,0-6.983.246.518.518,0,0,0,.134,1.018.526.526,0,0,0,.135-.018,15.6,15.6,0,0,1,6.479-.239.518.518,0,1,0,.236-1.008Z" transform="translate(-80.156 -144.322)"/><path class="a" d="M92.7,205.135a16.441,16.441,0,0,0-6.983.246.518.518,0,0,0,.134,1.018.526.526,0,0,0,.135-.018,15.6,15.6,0,0,1,6.479-.239.518.518,0,1,0,.236-1.008Z" transform="translate(-80.156 -192.419)"/><path class="a" d="M290.186,301.49a.518.518,0,0,0,.7.226,44.368,44.368,0,0,1,4.581-2.038.518.518,0,0,0-.313-.988,44.41,44.41,0,0,0-4.738,2.1A.518.518,0,0,0,290.186,301.49Z" transform="translate(-272.527 -280.545)"/><path class="a" d="M92.7,256.333a16.432,16.432,0,0,0-6.983.246.518.518,0,0,0,.134,1.018.524.524,0,0,0,.135-.018,15.6,15.6,0,0,1,6.479-.239.518.518,0,1,0,.236-1.008Z" transform="translate(-80.156 -240.512)"/><path class="a" d="M92.7,358.731a16.432,16.432,0,0,0-6.983.246A.518.518,0,0,0,85.851,360a.524.524,0,0,0,.135-.018,15.6,15.6,0,0,1,6.479-.239.518.518,0,1,0,.236-1.008Z" transform="translate(-80.156 -336.696)"/><path class="a" d="M92.7,307.53a16.422,16.422,0,0,0-6.983.246.518.518,0,0,0,.134,1.018.524.524,0,0,0,.135-.018,15.6,15.6,0,0,1,6.479-.239.518.518,0,1,0,.236-1.008Z" transform="translate(-80.156 -288.601)"/></g></svg>