<svg xmlns="http://www.w3.org/2000/svg" width="32.765" height="27.303" viewBox="0 0 32.765 27.303"><defs><style>.a{fill:rgba(12, 162, 205, 1);}</style></defs><g transform="translate(-6 -6)"><g transform="translate(6 6)"><path class="a" d="M31.127,0H1.638A1.64,1.64,0,0,0,0,1.638V21.3a1.64,1.64,0,0,0,1.638,1.638H18.567v3.277a1.09,1.09,0,0,0,1.694.908l2.127-1.414,2.129,1.414a1.09,1.09,0,0,0,1.7-.908V22.936h4.915A1.64,1.64,0,0,0,32.765,21.3V1.638A1.64,1.64,0,0,0,31.127,0ZM29.489,9.895c-.114-.063-.229-.123-.341-.18a2.409,2.409,0,0,1-.767-.5,2.548,2.548,0,0,1-.239-.922,2.425,2.425,0,0,0-.725-1.7,2.3,2.3,0,0,0-1.809-.184,2.383,2.383,0,0,1-.927.05A2.45,2.45,0,0,1,24,5.876a2.367,2.367,0,0,0-1.605-.961,2.365,2.365,0,0,0-1.605.961,2.447,2.447,0,0,1-.686.58,2.384,2.384,0,0,1-.927-.05,2.3,2.3,0,0,0-1.809.185,2.425,2.425,0,0,0-.724,1.7,2.551,2.551,0,0,1-.239.922,2.415,2.415,0,0,1-.767.5,2.374,2.374,0,0,0-1.372,1.241,2.406,2.406,0,0,0,.384,1.774,2.573,2.573,0,0,1,.342.923,2.572,2.572,0,0,1-.342.923,2.4,2.4,0,0,0-.384,1.774,2.377,2.377,0,0,0,1.371,1.241,2.409,2.409,0,0,1,.767.5,2.548,2.548,0,0,1,.239.922c.031.21.066.429.117.643L5.4,19.641a2.726,2.726,0,0,0-2.124-2.111L3.3,5.4A2.726,2.726,0,0,0,5.406,3.277l21.958.018a2.726,2.726,0,0,0,2.124,2.111ZM18.015,19.839A.192.192,0,0,1,18,19.823l-.005-.006a2.152,2.152,0,0,1-.277-.964,3.175,3.175,0,0,0-.429-1.393,3.043,3.043,0,0,0-1.16-.843c-.357-.182-.761-.389-.828-.6-.062-.194.149-.615.319-.953a3.238,3.238,0,0,0,.458-1.413,3.241,3.241,0,0,0-.459-1.413c-.17-.338-.381-.759-.319-.953.067-.21.471-.417.828-.6a3.039,3.039,0,0,0,1.159-.843,3.174,3.174,0,0,0,.43-1.394c.057-.383.128-.86.3-.985s.613-.043.978.018a3.033,3.033,0,0,0,1.451.009,3,3,0,0,0,1.128-.859c.268-.279.6-.626.818-.626s.55.347.818.626a3,3,0,0,0,1.128.859,3.027,3.027,0,0,0,1.451-.009c.365-.06.82-.136.978-.018s.24.6.3.986a3.175,3.175,0,0,0,.429,1.393,3.043,3.043,0,0,0,1.16.843c.357.182.761.389.828.6.062.194-.149.615-.319.953a3.238,3.238,0,0,0-.459,1.413,3.241,3.241,0,0,0,.459,1.413c.169.338.381.759.319.953-.067.21-.471.417-.828.6a3.039,3.039,0,0,0-1.159.843,3.174,3.174,0,0,0-.43,1.394c-.057.383-.128.86-.3.985s-.613.043-.978-.018a3.046,3.046,0,0,0-1.451-.009,3,3,0,0,0-1.128.859c-.268.279-.6.626-.818.626s-.55-.347-.818-.626a3,3,0,0,0-1.128-.859,1.84,1.84,0,0,0-.586-.087,5.372,5.372,0,0,0-.864.1c-.366.06-.821.135-.978.018ZM23,24.8a1.068,1.068,0,0,0-1.215-.007l-2.128,1.416V20.83a1.156,1.156,0,0,1,.439.019,2.449,2.449,0,0,1,.686.579,2.367,2.367,0,0,0,1.605.961A2.365,2.365,0,0,0,24,21.428a2.447,2.447,0,0,1,.686-.58,1.161,1.161,0,0,1,.439-.019v5.381ZM31.673,21.3a.547.547,0,0,1-.546.546H26.212V20.98a1.7,1.7,0,0,0,1.2-.266,2.425,2.425,0,0,0,.724-1.7,2.551,2.551,0,0,1,.239-.922,2.415,2.415,0,0,1,.767-.5,2.374,2.374,0,0,0,1.372-1.241,2.406,2.406,0,0,0-.384-1.774,2.573,2.573,0,0,1-.342-.923,2.572,2.572,0,0,1,.342-.923,3.221,3.221,0,0,0,.443-1.353s0-.008,0-.012V5.406a1.1,1.1,0,0,0-.888-1.075,1.622,1.622,0,0,1-1.259-1.258,1.1,1.1,0,0,0-1.075-.889H5.406a1.1,1.1,0,0,0-1.076.888A1.622,1.622,0,0,1,3.073,4.331a1.1,1.1,0,0,0-.888,1.075V17.529A1.1,1.1,0,0,0,3.072,18.6a1.622,1.622,0,0,1,1.259,1.258,1.1,1.1,0,0,0,1.075.888H17.422a1.748,1.748,0,0,0,1.144.229v.863H1.638a.547.547,0,0,1-.546-.546V1.638a.547.547,0,0,1,.546-.546H31.127a.547.547,0,0,1,.546.546Z"/><path class="a" d="M36.461,25.922A5.461,5.461,0,1,0,31,20.461,5.461,5.461,0,0,0,36.461,25.922Zm0-9.83a4.369,4.369,0,1,1-4.369,4.369A4.369,4.369,0,0,1,36.461,16.092Z" transform="translate(-14.071 -6.809)"/><path class="a" d="M18.553,20.546A.546.546,0,0,0,18.007,20H12.546a.546.546,0,1,0,0,1.092h5.461A.546.546,0,0,0,18.553,20.546Z" transform="translate(-5.447 -9.078)"/><path class="a" d="M19.1,16H12.546a.546.546,0,0,0,0,1.092H19.1A.546.546,0,1,0,19.1,16Z" transform="translate(-5.447 -7.263)"/><path class="a" d="M20.823,24H17.546a.546.546,0,1,0,0,1.092h3.277a.546.546,0,0,0,0-1.092Z" transform="translate(-7.717 -10.894)"/></g></g></svg>