<svg xmlns="http://www.w3.org/2000/svg" width="45.8" height="45.8" viewBox="0 0 45.8 45.8"><defs><style>.a{fill:white;}</style></defs><path class="a" d="M40.433,3.578H38.286V0H34.708V3.578H11.092V0H7.514V3.578H5.367A5.373,5.373,0,0,0,0,8.945V40.433A5.373,5.373,0,0,0,5.367,45.8H40.433A5.373,5.373,0,0,0,45.8,40.433V8.945A5.373,5.373,0,0,0,40.433,3.578Zm1.789,36.855a1.791,1.791,0,0,1-1.789,1.789H5.367a1.791,1.791,0,0,1-1.789-1.789V16.817H42.222Zm0-27.194H3.578V8.945A1.791,1.791,0,0,1,5.367,7.156H7.514v3.578h3.578V7.156H34.708v3.578h3.578V7.156h2.147a1.791,1.791,0,0,1,1.789,1.789Z"/><g transform="translate(6.798 20.574)"><rect class="a" width="3" height="3" transform="translate(0.202 0.426)"/></g><g transform="translate(13.955 20.574)"><rect class="a" width="4" height="3" transform="translate(0.045 0.426)"/></g><g transform="translate(21.111 20.574)"><rect class="a" width="4" height="3" transform="translate(-0.111 0.426)"/></g><g transform="translate(28.267 20.574)"><rect class="a" width="4" height="3" transform="translate(-0.267 0.426)"/></g><g transform="translate(35.423 20.574)"><rect class="a" width="4" height="3" transform="translate(-0.423 0.426)"/></g><g transform="translate(6.798 27.73)"><rect class="a" width="3" height="3" transform="translate(0.202 0.27)"/></g><g transform="translate(13.955 27.73)"><rect class="a" width="4" height="3" transform="translate(0.045 0.27)"/></g><g transform="translate(21.111 27.73)"><rect class="a" width="4" height="3" transform="translate(-0.111 0.27)"/></g><g transform="translate(28.267 27.73)"><rect class="a" width="4" height="3" transform="translate(-0.267 0.27)"/></g><g transform="translate(6.798 34.887)"><rect class="a" width="3" height="3" transform="translate(0.202 0.113)"/></g><g transform="translate(13.955 34.887)"><rect class="a" width="4" height="3" transform="translate(0.045 0.113)"/></g><g transform="translate(21.111 34.887)"><rect class="a" width="4" height="3" transform="translate(-0.111 0.113)"/></g><g transform="translate(28.267 34.887)"><rect class="a" width="4" height="3" transform="translate(-0.267 0.113)"/></g><g transform="translate(35.423 27.73)"><rect class="a" width="4" height="3" transform="translate(-0.423 0.27)"/></g></svg>