<svg xmlns="http://www.w3.org/2000/svg" width="35.129" height="48.875" viewBox="0 0 35.129 48.875"><defs><style>.a{fill:white;}</style></defs><g transform="translate(-68.899)"><g transform="translate(68.899)"><path class="a" d="M103.268,6.873,100.99,6.86h-.017V5.346a.764.764,0,0,0-.764-.764H97.918V3.055a.764.764,0,0,0-.764-.764H78.143a2.48,2.48,0,0,0-4.945,0H69.663a.764.764,0,0,0-.764.764V42a.764.764,0,0,0,.764.764H71.19v2.291a.764.764,0,0,0,.764.764h1.527v2.291a.764.764,0,0,0,.764.764h29.019a.764.764,0,0,0,.764-.764V7.637A.763.763,0,0,0,103.268,6.873Zm-27.6-5.346a.955.955,0,0,1,.934.764H74.737A.954.954,0,0,1,75.671,1.527ZM70.426,41.238V3.818h2.764V9.347a2.48,2.48,0,1,0,4.961,0V5.914a.764.764,0,0,0-1.527,0V9.347a.953.953,0,1,1-1.906,0V3.818H96.391v37.42Zm2.291,3.055V42.765H97.155A.764.764,0,0,0,97.918,42V6.109h1.527V44.293Zm2.291,3.055V45.82h25.2a.764.764,0,0,0,.764-.764V8.387h.008L102.5,8.4V47.347Z" transform="translate(-68.899)"/><path class="a" d="M164.561,168.419H153.87a.764.764,0,1,0,0,1.527h10.692a.764.764,0,0,0,0-1.527Z" transform="translate(-144.706 -151.618)"/><path class="a" d="M164.561,199.041H153.87a.764.764,0,1,0,0,1.527h10.692a.764.764,0,0,0,0-1.527Z" transform="translate(-144.706 -179.186)"/><path class="a" d="M189.075,229.662h-4.582a.764.764,0,0,0,0,1.527h4.582a.764.764,0,0,0,0-1.527Z" transform="translate(-172.274 -206.752)"/></g></g></svg>