<svg xmlns="http://www.w3.org/2000/svg" width="43.773" height="45.151" viewBox="0 0 43.773 45.151"><defs><style>.a{fill:#949b9e;}</style></defs><g transform="translate(-7.815)"><g transform="translate(42.86 16.986)"><path class="a" d="M406.72,192.873a.882.882,0,0,0-1.247,1.247l.041.04a.882.882,0,0,0,1.206-1.287Z" transform="translate(-405.214 -192.615)"/></g><g transform="translate(31.444 13.513)"><path class="a" d="M286.893,155.513a13.806,13.806,0,0,0-1.54-.909,11.827,11.827,0,0,0-8.969-.855.882.882,0,1,0,.523,1.684,10.1,10.1,0,0,1,7.652.746,12.282,12.282,0,0,1,1.343.793.882.882,0,1,0,.991-1.459Z" transform="translate(-275.764 -153.23)"/></g><g transform="translate(13.446 5.596)"><g transform="translate(0)"><path class="a" d="M108.819,85.07a11.346,11.346,0,0,1-.971-2.43,8.34,8.34,0,0,0-1.063-7.928,16.522,16.522,0,0,0-12.872-6.829,15.78,15.78,0,0,0-7.27,1.766,7.549,7.549,0,1,0-11.364,7.8,1.474,1.474,0,0,1,.852,1.31v5.16A1.788,1.788,0,0,0,77.915,85.7h.3a15.706,15.706,0,0,0,5.318,9.944,3.477,3.477,0,0,1-.241,1.714c-.273.949-.692,2-1.061,2.934-.247.622-.461,1.16-.59,1.567a.882.882,0,0,0,.84,1.149H95.07a1.431,1.431,0,0,0,1.339-1.067,8.621,8.621,0,0,0,.365-1.335c.1-.477.35-1.593.595-1.728a.179.179,0,0,1,.049,0,.866.866,0,0,0,.137.011c1.318,0,2.4.06,3.346.112,2.787.155,4.47.248,5.946-1.878.751-1.081.666-2.658.576-4.328a15.751,15.751,0,0,1-.009-2.487,7.7,7.7,0,0,1,.781-.582c.831-.571,1.616-1.11,1.616-1.93A7.732,7.732,0,0,0,108.819,85.07ZM76.2,75.945a5.786,5.786,0,1,1,6.036,0,3.209,3.209,0,0,0-1.546,1.889H77.746A3.211,3.211,0,0,0,76.2,75.945ZM80.542,79.6v1.29H77.894V79.6Zm-2.626,4.343a.025.025,0,0,1-.022-.022V82.652h2.648v1.267a.025.025,0,0,1-.022.022ZM107.2,88.28c-.759.521-1.415.971-1.511,1.653a15.7,15.7,0,0,0-.023,2.965c.067,1.239.142,2.643-.263,3.227-.877,1.264-1.636,1.276-4.4,1.123-.912-.051-2.043-.113-3.384-.115A1.88,1.88,0,0,0,95.646,98.3a8.193,8.193,0,0,0-.594,1.932,9.37,9.37,0,0,1-.262,1.018H83.751l.119-.3c1.27-3.2,2.075-5.545.85-6.6A13.956,13.956,0,0,1,80,85.7h.525a1.788,1.788,0,0,0,1.786-1.786V78.761a1.474,1.474,0,0,1,.852-1.312,7.5,7.5,0,0,0,3.586-5.838,14.011,14.011,0,0,1,7.17-1.965,14.851,14.851,0,0,1,11.406,6.045,6.619,6.619,0,0,1,.876,6.333c-.346.833.167,1.988,1.033,3.8a15.914,15.914,0,0,1,.793,1.836A8.331,8.331,0,0,1,107.2,88.28Z" transform="translate(-71.668 -63.458)"/></g></g><g transform="translate(22.163 9.565)"><path class="a" d="M173.672,110.8a3.531,3.531,0,0,0-1.872-2.236.882.882,0,0,0-.808,1.568,1.768,1.768,0,0,1,.978,1.128,2.674,2.674,0,0,1-.245,1.822.882.882,0,1,0,1.487.948A4.421,4.421,0,0,0,173.672,110.8Z" transform="translate(-170.514 -108.47)"/></g><g transform="translate(20.114)"><path class="a" d="M148.161,0a.882.882,0,0,0-.882.882V3.4a.882.882,0,0,0,1.764,0V.882A.882.882,0,0,0,148.161,0Z" transform="translate(-147.279)"/></g><g transform="translate(7.815 12.299)"><g transform="translate(0)"><path class="a" d="M11.211,139.465H8.7a.882.882,0,0,0,0,1.764h2.514a.882.882,0,0,0,0-1.764Z" transform="translate(-7.815 -139.465)"/></g></g><g transform="translate(13.964 1.648)"><g transform="translate(0)"><path class="a" d="M80.448,21.3l-1.257-2.176a.882.882,0,1,0-1.527.882l1.257,2.176a.882.882,0,1,0,1.527-.882Z" transform="translate(-77.545 -18.684)"/></g></g><g transform="translate(9.462 6.15)"><path class="a" d="M29.995,71.109l-2.177-1.257a.882.882,0,1,0-.882,1.527l2.177,1.257a.882.882,0,1,0,.882-1.527Z" transform="translate(-26.495 -69.735)"/></g><g transform="translate(28.589 6.149)"><path class="a" d="M247.2,70.173a.882.882,0,0,0-1.2-.323l-2.177,1.257a.882.882,0,1,0,.882,1.527l2.176-1.257A.882.882,0,0,0,247.2,70.173Z" transform="translate(-243.382 -69.732)"/></g><g transform="translate(9.462 17.191)"><path class="a" d="M30.318,195.387a.882.882,0,0,0-1.2-.323l-2.177,1.257a.882.882,0,1,0,.882,1.528l2.177-1.257A.882.882,0,0,0,30.318,195.387Z" transform="translate(-26.495 -194.946)"/></g><g transform="translate(13.964 21.087)"><path class="a" d="M79.943,239.245a.882.882,0,0,0-1.2.323l-1.075,1.863a.882.882,0,1,0,1.527.882l1.075-1.863A.882.882,0,0,0,79.943,239.245Z" transform="translate(-77.545 -239.127)"/></g><g transform="translate(25.007 1.648)"><path class="a" d="M205.343,18.8a.882.882,0,0,0-1.2.323L202.881,21.3a.882.882,0,1,0,1.527.882l1.257-2.176A.882.882,0,0,0,205.343,18.8Z" transform="translate(-202.763 -18.683)"/></g></g></svg>