<svg xmlns="http://www.w3.org/2000/svg" width="48.227" height="40.773" viewBox="0 0 48.227 40.773"><defs><style>.a{fill:white;}</style></defs><g transform="translate(0 -39.568)"><g transform="translate(0 62.502)"><path class="a" d="M28.781,295.072H25.126a.942.942,0,0,0,0,1.884h3.655a1.023,1.023,0,1,1,0,2.046H18.943a4.949,4.949,0,0,1-3.815-1.789l-2.353-2.828a6.824,6.824,0,0,0-5.065-2.462v-5.564h3.468a6.533,6.533,0,0,1,4.56,1.842l5.078,4.9a.925.925,0,0,1-1.268,1.348l-3.986-3.654a.942.942,0,0,0-1.273,1.389l3.987,3.654a2.809,2.809,0,0,0,3.849-4.091l-5.078-4.9a8.408,8.408,0,0,0-5.868-2.37H7.527a2.338,2.338,0,0,0-2.152-1.429H.942a.942.942,0,0,0-.942.942v6.887a.942.942,0,0,0,1.884,0V284.93H5.375a.451.451,0,0,1,.451.451v7.549a.451.451,0,0,1-.451.451H4.4a.942.942,0,1,0,0,1.884h.978A2.338,2.338,0,0,0,7.54,293.8a4.949,4.949,0,0,1,3.787,1.788l2.353,2.828a6.827,6.827,0,0,0,5.263,2.468h9.838a2.906,2.906,0,1,0,0-5.813Z" transform="translate(0 -283.046)"/></g><g transform="translate(16.539 39.568)"><path class="a" d="M206.335,48.268a.942.942,0,0,0-.942.942v6.313H201.9a.451.451,0,0,1-.451-.451V47.523a.451.451,0,0,1,.451-.451h.909a.942.942,0,1,0,0-1.884H201.9a2.338,2.338,0,0,0-2.165,1.463,4.949,4.949,0,0,1-3.787-1.788L193.6,42.036a6.827,6.827,0,0,0-5.263-2.468H178.5a2.906,2.906,0,1,0,0,5.813h4.023a.942.942,0,1,0,0-1.884H178.5a1.023,1.023,0,1,1,0-2.046h9.838a4.949,4.949,0,0,1,3.815,1.789l2.353,2.828a6.825,6.825,0,0,0,5.065,2.462v5.564H196.1a6.533,6.533,0,0,1-4.56-1.842l-5.078-4.9A.925.925,0,0,1,187.73,46l3.987,3.654a.942.942,0,1,0,1.273-1.388L189,44.615a2.809,2.809,0,0,0-3.849,4.091l5.078,4.9a8.408,8.408,0,0,0,5.868,2.37h3.651a2.338,2.338,0,0,0,2.152,1.429h4.433a.942.942,0,0,0,.942-.942V49.21A.942.942,0,0,0,206.335,48.268Z" transform="translate(-175.59 -39.568)"/></g><g transform="translate(28.598 71.046)"><path class="a" d="M305.427,374.307a.951.951,0,1,0-.492,1.256l.02-.009A.943.943,0,0,0,305.427,374.307Z" transform="translate(-303.617 -373.752)"/></g><g transform="translate(31.046 69.633)"><path class="a" d="M331.307,359.139a.945.945,0,1,0-.206,1.321l.012-.009A.938.938,0,0,0,331.307,359.139Z" transform="translate(-329.603 -358.757)"/></g><g transform="translate(25.904 71.911)"><path class="a" d="M276.888,383.687a.95.95,0,1,0-.753,1.122l.028-.006A.941.941,0,0,0,276.888,383.687Z" transform="translate(-275.016 -382.94)"/></g><g transform="translate(33.139 67.724)"><path class="a" d="M353.4,338.729a.942.942,0,0,0-1.33.069l-.02.023a.942.942,0,1,0,1.35-.091Zm-.526.794-.1-.095.113.1Z" transform="translate(-351.819 -338.487)"/></g><g transform="translate(35.898 62.822)"><path class="a" d="M382.326,286.483a.946.946,0,1,0,.625,1.185l0-.013A.939.939,0,0,0,382.326,286.483Z" transform="translate(-381.109 -286.443)"/></g><g transform="translate(36.45 57.217)"><path class="a" d="M388.85,227.723q0-.018-.007-.036a.949.949,0,1,0,.007.036Z" transform="translate(-386.979 -226.939)"/></g><g transform="translate(36.432 60.041)"><path class="a" d="M387.809,256.927a.943.943,0,0,0-1.021.855c0,.009,0,.028,0,.037a.942.942,0,0,0,.885,1l.056,0a.947.947,0,0,0,.083-1.889Z" transform="translate(-386.783 -256.923)"/></g><g transform="translate(34.781 65.42)"><path class="a" d="M370.67,314.147a.942.942,0,0,0-1.284.355l-.013.024a.944.944,0,0,0,.828,1.4.934.934,0,0,0,.824-.49l-.819-.466.819.464A.942.942,0,0,0,370.67,314.147Z" transform="translate(-369.259 -314.024)"/></g><g transform="translate(17.322 47.085)"><g transform="translate(0 0)"><path class="a" d="M185.687,119.89a.942.942,0,0,0-1.263-.421l-.008,0a.942.942,0,1,0,1.272.417Z" transform="translate(-183.898 -119.37)"/></g></g><g transform="translate(19.968 46.1)"><path class="a" d="M213.855,109.638a.942.942,0,0,0-1.137-.693l-.022.006a.942.942,0,1,0,1.159.688Z" transform="translate(-211.987 -108.918)"/></g><g transform="translate(14.939 48.613)"><path class="a" d="M160.281,135.945a.943.943,0,0,0-1.324-.143l.584.739-.587-.737a.942.942,0,0,0,1.173,1.474l.012-.01A.941.941,0,0,0,160.281,135.945Z" transform="translate(-158.599 -135.595)"/></g><g transform="translate(10.407 55.631)"><g transform="translate(0 0)"><path class="a" d="M111.679,210.14a.942.942,0,0,0-1.156.661l-.009.035a.942.942,0,1,0,1.165-.7Z" transform="translate(-110.487 -210.106)"/></g></g><g transform="translate(10.002 58.431)"><g transform="translate(0 0)"><path class="a" d="M107.187,239.826a.942.942,0,0,0-.995.886c0,.012,0,.024,0,.036a.941.941,0,0,0,.913.968h.029a.946.946,0,0,0,.054-1.891Z" transform="translate(-106.191 -239.824)"/></g></g><g transform="translate(11.401 52.983)"><path class="a" d="M122.421,182.1a.942.942,0,0,0-1.271.4l-.015.03a.942.942,0,1,0,1.287-.427Z" transform="translate(-121.037 -181.989)"/></g><g transform="translate(12.936 50.608)"><g transform="translate(0 0)"><path class="a" d="M138.888,156.991a.942.942,0,0,0-1.326.123l-.019.024a.942.942,0,1,0,1.346-.147Z" transform="translate(-137.339 -156.773)"/></g></g><g transform="translate(10.194 61.253)"><g transform="translate(0 0)"><path class="a" d="M110.1,270.566a.942.942,0,0,0-1.854.332l0,.009a.937.937,0,0,0,.923.771.944.944,0,0,0,.929-1.113Z" transform="translate(-108.23 -269.791)"/></g></g><g transform="translate(16.631 54.88)"><g transform="translate(0 0)"><path class="a" d="M187.282,202.125a4.362,4.362,0,0,0-3.171,1.359,4.374,4.374,0,1,0-5.97,6.375l.018.015,5.367,4.249a.942.942,0,0,0,1.171,0l5.595-4.456a.928.928,0,0,0,.078-.07,4.373,4.373,0,0,0-3.088-7.47Zm1.792,6.1-4.965,3.955-4.771-3.777a2.49,2.49,0,1,1,3.9-2.858.942.942,0,0,0,1.74,0,2.49,2.49,0,1,1,4.093,2.681Z" transform="translate(-176.566 -202.125)"/></g></g><g transform="translate(0.003 72.839)"><circle class="a" cx="0.939" cy="0.939" r="0.939"/></g><g transform="translate(46.346 45.192)"><g transform="translate(0 0)"><circle class="a" cx="0.939" cy="0.939" r="0.939"/></g></g></g></svg>