<svg xmlns="http://www.w3.org/2000/svg" width="62.818" height="62.818" viewBox="0 0 62.818 62.818"><defs><style>.a{fill:#7db72c;}</style></defs><g transform="translate(2.182 0)"><g transform="translate(-2.182 0)"><path class="a" d="M3.188,220.867a4.188,4.188,0,1,0,4.188,4.188A4.2,4.2,0,0,0,3.188,220.867Zm0,6.282a2.094,2.094,0,1,1,2.094-2.094A2.1,2.1,0,0,1,3.188,227.149Z" transform="translate(1 -193.646)"/><path class="a" d="M446.922,220.867a4.188,4.188,0,1,0,4.188,4.188A4.2,4.2,0,0,0,446.922,220.867Zm0,6.282a2.094,2.094,0,1,1,2.094-2.094A2.1,2.1,0,0,1,446.922,227.149Z" transform="translate(-388.292 -193.646)"/><path class="a" d="M225.055,7.376a4.188,4.188,0,1,0-4.188-4.188A4.2,4.2,0,0,0,225.055,7.376Zm0-6.282a2.094,2.094,0,1,1-2.094,2.094A2.1,2.1,0,0,1,225.055,1.094Z" transform="translate(-193.646 1)"/><path class="a" d="M225.055,442.733a4.188,4.188,0,1,0,4.188,4.188A4.2,4.2,0,0,0,225.055,442.733Zm0,6.282a2.094,2.094,0,1,1,2.094-2.094A2.1,2.1,0,0,1,225.055,449.015Z" transform="translate(-193.646 -388.291)"/><path class="a" d="M65.109,379.136a3.962,3.962,0,0,0-1.256,2.931A4.134,4.134,0,0,0,65.109,385a3.8,3.8,0,0,0,2.931,1.256,4.561,4.561,0,0,0,3.036-1.152,4.22,4.22,0,1,0-5.968-5.968Zm4.4,4.4a2.024,2.024,0,0,1-2.931,0,2.073,2.073,0,1,1,2.932-2.932A2.024,2.024,0,0,1,69.507,383.533Z" transform="translate(-55.896 -331.395)"/><path class="a" d="M382.068,71.481a4.241,4.241,0,1,0-2.931-1.256A3.8,3.8,0,0,0,382.068,71.481ZM380.6,65.827a2.024,2.024,0,0,1,2.932,0,2.073,2.073,0,1,1-2.932,0Z" transform="translate(-331.395 -55.148)"/><path class="a" d="M68.042,72.229a4.561,4.561,0,0,0,3.036-1.152A4.22,4.22,0,0,0,65.11,65.11a3.8,3.8,0,0,0-1.256,2.931,4.134,4.134,0,0,0,1.256,2.931A3.8,3.8,0,0,0,68.042,72.229Zm-1.466-5.654a2.024,2.024,0,0,1,2.932,0,2.073,2.073,0,0,1-2.931,2.931,2.024,2.024,0,0,1,0-2.931Z" transform="translate(-55.897 -55.896)"/><path class="a" d="M379.137,378.283a4.241,4.241,0,0,0,2.931,7.224,4.563,4.563,0,0,0,3.036-1.256,4.22,4.22,0,0,0-5.968-5.968Zm4.4,4.5a2.073,2.073,0,0,1-2.931-2.931,2.024,2.024,0,0,1,2.932,0A2.024,2.024,0,0,1,383.534,382.785Z" transform="translate(-331.395 -330.646)"/><path class="a" d="M105.272,84.333a20.939,20.939,0,1,0,20.939,20.939A21,21,0,0,0,105.272,84.333Zm0,39.785a18.845,18.845,0,1,1,18.845-18.845A18.9,18.9,0,0,1,105.272,124.118Z" transform="translate(-73.863 -73.863)"/></g></g></svg>