<svg xmlns="http://www.w3.org/2000/svg" width="58.768" height="58.66" viewBox="0 0 58.768 58.66"><defs><style>.a{fill:#7db72c;}</style></defs><g transform="translate(-619.21 -224.64)"><g transform="translate(619.21 224.64)"><path class="a" d="M780.348,224.64c.242.093.485.183.724.281a3.921,3.921,0,1,1-2.742-.059c.186-.067.368-.148.551-.222Zm-2.688,3.916a1.955,1.955,0,1,0,1.932-1.959A1.979,1.979,0,0,0,777.66,228.556Z" transform="translate(-750.196 -224.64)"/><path class="a" d="M684.492,345.073c-.147.52-.278,1.052-.45,1.571a.959.959,0,0,1-1.718.363c-.957-1.162-1.884-2.351-2.793-3.552a.962.962,0,0,1,.509-1.6q2.011-.717,4.037-1.393c.893-.3,1.537.322,1.322,1.25-.1.434-.225.862-.364,1.391.64.1,1.25.216,1.865.284a21.58,21.58,0,0,0,21.761-11.8c4.363-9.192.8-20.616-7.961-25.364a17.493,17.493,0,0,0-23.46,6.609c-4.225,7.612-1.261,17.548,6.375,21.373a14.091,14.091,0,0,0,15.7-2.212c.148-.136.3-.27.464-.417l1.348,1.385a15.277,15.277,0,0,1-5,3.376,16.189,16.189,0,0,1-20.865-7.9,17.86,17.86,0,0,1,7.191-23.6,19.671,19.671,0,0,1,27.113,7.465,21.726,21.726,0,0,1-6.484,28.771,23.593,23.593,0,0,1-14.516,4.387C687.234,345.427,685.9,345.213,684.492,345.073Zm-2.607-1.781.793.994.348-1.395Z" transform="translate(-664.527 -289.531)"/><path class="a" d="M741.879,349.9c-.394.456-.733.895-1.123,1.284-.259.259-.449.506-.17.818a1.032,1.032,0,0,0,.635.386c2.12-.036,2.008.463,1.985,2.087-.013.9.005,1.792,0,2.688-.009.768-.358,1.111-1.127,1.128a4.818,4.818,0,0,0-.853.015,1.118,1.118,0,0,0-.6.334.5.5,0,0,0,.079.788,6.009,6.009,0,0,1,.711.756.937.937,0,0,1-.009,1.417q-1.336,1.385-2.722,2.721a.954.954,0,0,1-1.421-.01c-.228-.2-.438-.425-.655-.641-.2-.2-.351-.41-.717-.239a.706.706,0,0,0-.5.717c-.053,1.961-.069,1.965-2.018,1.965-.9,0-1.792.006-2.688,0-.81-.007-1.157-.351-1.173-1.145-.005-.265-.013-.53,0-.794a.583.583,0,0,0-.4-.7.637.637,0,0,0-.789.191c-1.384,1.331-1.457,1.326-2.827-.038-.62-.618-1.24-1.237-1.854-1.861-.645-.657-.636-1.1.022-1.768q.236-.239.475-.475c.2-.2.417-.356.241-.717-.159-.326-.315-.514-.715-.5-2.081.075-2-.4-1.976-2.07.014-.876,0-1.752,0-2.627.007-.835.352-1.17,1.2-1.181.244,0,.489-.011.733,0,.323.017.559-.013.7-.4a.642.642,0,0,0-.179-.79c-1.344-1.409-1.338-1.463.022-2.823.619-.619,1.236-1.241,1.86-1.856.643-.635,1.12-.63,1.778.008a3.379,3.379,0,0,0,.524.508,1.115,1.115,0,0,0,.657.184.522.522,0,0,0,.507-.624,6.67,6.67,0,0,1,.018-1.038.953.953,0,0,1,1.012-.991q1.924-.026,3.849,0a.953.953,0,0,1,1,1.008c.015.3.014.611,0,.916-.013.322.012.559.4.7a.647.647,0,0,0,.791-.18c1.411-1.343,1.461-1.337,2.824.026.634.634,1.28,1.256,1.895,1.907A6.689,6.689,0,0,1,741.879,349.9Zm-18.2,6.385c2.64.314,3.473,2.346,1.93,4.626l1.275,1.3c2.208-1.6,4.237-.765,4.648,1.911h1.893a2.657,2.657,0,0,1,4.5-1.939l1.405-1.317a2.652,2.652,0,0,1,1.875-4.541v-1.919c-1.329-.08-1.859-.4-2.284-1.254-.591-1.193-.805-2.328.4-3.281l-1.378-1.4a2.244,2.244,0,0,1-2.914.583,2.285,2.285,0,0,1-1.616-2.466h-1.881c-.382,2.673-2.4,3.5-4.526,2l-1.377,1.318a2.155,2.155,0,0,1,.625,2.6c-.458,1.207-1.136,2.017-2.572,1.866Z" transform="translate(-704.985 -325.054)"/><path class="a" d="M856.155,289.364c.44.184.858.337,1.257.529a.965.965,0,0,1,.13,1.781q-1.873,1.205-3.789,2.342a.964.964,0,0,1-1.544-.656q-.5-2.106-.948-4.226a.977.977,0,0,1,1.38-1.147c.534.19,1.057.411,1.683.657a30.108,30.108,0,0,0-1.457-23.933,27.958,27.958,0,0,0-18.485-15.18l.465-1.9A29.9,29.9,0,0,1,854.6,263.806C858.743,272.05,859.109,280.615,856.155,289.364Zm-2.319,2.294,1.078-.661-1.334-.52Z" transform="translate(-799.32 -243.886)"/><path class="a" d="M636.8,239.741c-.181-.551-.343-1.094-.537-1.625a1.007,1.007,0,0,1,.183-1.133.993.993,0,0,1,1.125-.216c1.446.484,2.9.94,4.345,1.431.883.3,1.082.935.553,1.715-.834,1.23-1.688,2.445-2.523,3.675a1.079,1.079,0,0,1-1.056.583,1.029,1.029,0,0,1-.87-.828q-.273-.807-.548-1.613A24.654,24.654,0,0,0,625.925,279.4l-1.571,1.17c-5-7.252-6.489-15.07-3.88-23.462C623.074,248.746,628.857,243.215,636.8,239.741Zm2.52,1.3.9-1.34-1.515-.481Z" transform="translate(-619.21 -234.723)"/><path class="a" d="M659.69,514.467a3.909,3.909,0,1,1,3.888-3.946A3.914,3.914,0,0,1,659.69,514.467Zm0-5.864a1.955,1.955,0,1,0,1.933,1.964A1.975,1.975,0,0,0,659.692,508.6Z" transform="translate(-649.805 -460.696)"/><path class="a" d="M905.689,536.649a3.909,3.909,0,1,1-3.928,3.9A3.912,3.912,0,0,1,905.689,536.649Zm1.935,3.918a1.954,1.954,0,1,0-1.946,1.945A1.978,1.978,0,0,0,907.624,540.567Z" transform="translate(-855.72 -485.808)"/><path class="a" d="M853.1,451.472l-.824,2.093-1.756-.86.721-1.82Z" transform="translate(-812.832 -414.019)"/><path class="a" d="M767.534,385.53a4.886,4.886,0,1,1-4.908-4.879A4.9,4.9,0,0,1,767.534,385.53Zm-4.845-2.925a2.933,2.933,0,1,0,2.892,2.944A2.952,2.952,0,0,0,762.688,382.6Z" transform="translate(-735.184 -355.229)"/></g></g></svg>