<svg xmlns="http://www.w3.org/2000/svg" xmlns:xlink="http://www.w3.org/1999/xlink" width="1366" height="679" viewBox="0 0 1366 679"><defs><style>.a{fill:url(#a);}.b{fill:rgba(255,255,255,0.27);}.c{filter:url(#l);}.d{filter:url(#j);}.e{filter:url(#h);}.f{filter:url(#f);}.g{filter:url(#d);}.h{filter:url(#b);}</style><linearGradient id="a" x1="0.096" y1="-0.65" x2="0.926" y2="1.129" gradientUnits="objectBoundingBox"><stop offset="0" stop-color="#7db72c"/><stop offset="1" stop-color="#0ca2cd"/></linearGradient><filter id="b" x="205" y="50" width="76" height="76" filterUnits="userSpaceOnUse"><feOffset dy="3" input="SourceAlpha"/><feGaussianBlur stdDeviation="3" result="c"/><feFlood flood-opacity="0.161"/><feComposite operator="in" in2="c"/><feComposite in="SourceGraphic"/></filter><filter id="d" x="384" y="69" width="62" height="62" filterUnits="userSpaceOnUse"><feOffset dy="3" input="SourceAlpha"/><feGaussianBlur stdDeviation="3" result="e"/><feFlood flood-opacity="0.161"/><feComposite operator="in" in2="e"/><feComposite in="SourceGraphic"/></filter><filter id="f" x="1015" y="94" width="42" height="42" filterUnits="userSpaceOnUse"><feOffset dy="3" input="SourceAlpha"/><feGaussianBlur stdDeviation="3" result="g"/><feFlood flood-opacity="0.161"/><feComposite operator="in" in2="g"/><feComposite in="SourceGraphic"/></filter><filter id="h" x="1089" y="169" width="54" height="54" filterUnits="userSpaceOnUse"><feOffset dy="3" input="SourceAlpha"/><feGaussianBlur stdDeviation="3" result="i"/><feFlood flood-opacity="0.161"/><feComposite operator="in" in2="i"/><feComposite in="SourceGraphic"/></filter><filter id="j" x="255" y="151" width="43" height="43" filterUnits="userSpaceOnUse"><feOffset dy="3" input="SourceAlpha"/><feGaussianBlur stdDeviation="3" result="k"/><feFlood flood-opacity="0.161"/><feComposite operator="in" in2="k"/><feComposite in="SourceGraphic"/></filter><filter id="l" x="1125" y="67" width="63" height="62" filterUnits="userSpaceOnUse"><feOffset dy="3" input="SourceAlpha"/><feGaussianBlur stdDeviation="3" result="m"/><feFlood flood-opacity="0.161"/><feComposite operator="in" in2="m"/><feComposite in="SourceGraphic"/></filter></defs><g transform="translate(0 -1289)"><rect class="a" width="1366" height="679" transform="translate(0 1289)"/><g class="h" transform="matrix(1, 0, 0, 1, 0, 1289)"><circle class="b" cx="29" cy="29" r="29" transform="translate(214 56)"/></g><g class="g" transform="matrix(1, 0, 0, 1, 0, 1289)"><circle class="b" cx="22" cy="22" r="22" transform="translate(393 75)"/></g><g class="f" transform="matrix(1, 0, 0, 1, 0, 1289)"><circle class="b" cx="12" cy="12" r="12" transform="translate(1024 100)"/></g><g class="e" transform="matrix(1, 0, 0, 1, 0, 1289)"><circle class="b" cx="18" cy="18" r="18" transform="translate(1098 175)"/></g><g class="d" transform="matrix(1, 0, 0, 1, 0, 1289)"><circle class="b" cx="12.5" cy="12.5" r="12.5" transform="translate(264 157)"/></g><g class="c" transform="matrix(1, 0, 0, 1, 0, 1289)"><ellipse class="b" cx="22.5" cy="22" rx="22.5" ry="22" transform="translate(1134 73)"/></g></g></svg>