<svg xmlns="http://www.w3.org/2000/svg" width="47.71" height="47.71" viewBox="0 0 47.71 47.71"><defs><style>.a{fill:#7db72c;}</style></defs><g transform="translate(141 -147.89)"><g transform="translate(-141 147.89)"><path class="a" d="M-140,160.029v-9.746a2.351,2.351,0,0,1,1.392-1.392h9.746a1.9,1.9,0,0,1,1.376,1.682c.036,1.407.019,2.815.01,4.223a.65.65,0,0,1-.6.7c-.465.064-.779-.25-.782-.8-.008-1.253,0-2.506,0-3.759,0-.541-.113-.654-.654-.654q-4.223,0-8.447,0c-.518,0-.643.119-.643.618q0,4.246,0,8.493c0,.51.122.632.628.633q4.246,0,8.493,0c.5,0,.618-.129.623-.642,0-.5-.008-.99,0-1.485s.274-.771.679-.779c.424-.008.7.29.708.8.01.433,0,.866,0,1.3,0,1.536-.666,2.2-2.2,2.2H-133v9.1h8.456c0-.233,0-.431,0-.629.011-1.206-.019-2.414.045-3.618a2.013,2.013,0,0,1,1.9-1.894c.924-.061,1.855-.033,2.782-.043.178,0,.355,0,.52,0a1.645,1.645,0,0,0,.042-.215c0-.7-.008-1.393.012-2.088a.557.557,0,0,0-.332-.579,2.027,2.027,0,0,1-.971-2.381,2.082,2.082,0,0,1,2-1.5,2.078,2.078,0,0,1,1.994,1.515,2.081,2.081,0,0,1-.9,2.339c-.145.093-.371.225-.376.345-.033.842-.017,1.686-.017,2.527h3.794v-.635q0-4.107,0-8.214c0-.779.22-.992.994-.993q3.759,0,7.518,0h.539c0-1.095.043-2.145-.012-3.19a2.135,2.135,0,0,1,1.4-2.379h9.746a2.342,2.342,0,0,1,1.392,1.392v9.746a1.972,1.972,0,0,1-1.914,1.394c-2.907-.006-5.815,0-8.722-.005a1.794,1.794,0,0,1-1.893-1.9c-.01-1.067,0-2.134,0-3.2,0-.148-.013-.3-.02-.44h-7.59v8.464h.967c.464,0,.928-.01,1.392,0a2.187,2.187,0,0,1,2.328,2.326c.017.721,0,1.443,0,2.219,1,0,1.939-.01,2.878.006a.6.6,0,0,0,.615-.353,2.031,2.031,0,0,1,2.391-.945,2.1,2.1,0,0,1,1.486,2.02,2.1,2.1,0,0,1-1.54,1.98,2.1,2.1,0,0,1-2.333-.925c-.091-.143-.231-.356-.354-.36-1.03-.029-2.06-.016-3.117-.016v2.356h8.874c.773,0,.982.212.982,1q0,4.848,0,9.7v.536c1.1,0,2.147.045,3.192-.012a2.132,2.132,0,0,1,2.378,1.4v9.746a2.351,2.351,0,0,1-1.392,1.392h-9.746c-.695-.3-1.321-.733-1.355-1.544-.063-1.482-.037-2.969-.021-4.453a.638.638,0,0,1,.67-.639.682.682,0,0,1,.7.665,3.406,3.406,0,0,1,.007.371c0,1.207.005,2.413,0,3.62,0,.409.174.591.586.59q4.293-.008,8.585,0c.415,0,.581-.19.58-.6q-.008-4.293,0-8.585c0-.385-.169-.569-.559-.569q-4.316,0-8.632,0c-.389,0-.563.188-.559.572.006.526.011,1.052,0,1.578a.692.692,0,0,1-.7.76.7.7,0,0,1-.687-.771q-.019-.835,0-1.671a1.8,1.8,0,0,1,1.845-1.856c.82-.015,1.64,0,2.46,0h1.227v-9.812h-8.455c0,1-.036,1.976.007,2.947.152,3.417-.534,4.11-3.927,3.946-.256-.012-.513,0-.814,0,0,.9.014,1.736-.007,2.567a.709.709,0,0,0,.4.731,2.061,2.061,0,0,1,.312,3.3A2.086,2.086,0,0,1-115,187.3a2.087,2.087,0,0,1,.533-3.043c.146-.094.382-.221.386-.339.031-.967.018-1.936.018-2.917h-3.792v.58q0,3.968,0,7.936c0,.936-.18,1.116-1.111,1.116h-8.5c0,1.183-.043,2.3.012,3.406a2.138,2.138,0,0,1-1.4,2.379h-9.746A2.341,2.341,0,0,1-140,195.022v-9.746a1.934,1.934,0,0,1,1.821-1.388c2.969-.008,5.938-.013,8.907,0a1.765,1.765,0,0,1,1.8,1.8c.02,1,0,2.01.007,3.015,0,.163.013.327.021.495h8.147v-8.238c-.969,0-1.9.045-2.82-.018a3.567,3.567,0,0,1-1.484-.407,2.057,2.057,0,0,1-.944-1.947c0-.738,0-1.475,0-2.23-.536-.071-.925-.105-1.239.448a1.94,1.94,0,0,1-2.318.79,2.047,2.047,0,0,1-1.442-2,2.064,2.064,0,0,1,1.481-1.97,2.079,2.079,0,0,1,2.327.821c.349.522.532.583,1.148.387v-2.882h-.642q-4.082,0-8.165,0c-.835,0-1.031-.205-1.031-1.049q0-4.477,0-8.953v-.535c-1.1,0-2.147-.045-3.192.012A2.132,2.132,0,0,1-140,160.029Zm23.762,5.712q-2.9,0-5.8,0c-.874,0-1.109.233-1.11,1.1q0,5.8,0,11.6c0,.894.228,1.121,1.133,1.122q5.8,0,11.6,0c.839,0,1.086-.243,1.086-1.074q0-5.825,0-11.649c0-.87-.234-1.1-1.109-1.1Q-113.337,165.736-116.238,165.74Zm22.37-10.538q0-2.112,0-4.223c0-.592-.106-.7-.708-.7q-4.177,0-8.353,0c-.574,0-.683.107-.683.672q0,4.2,0,8.4c0,.562.114.673.685.673q4.2,0,8.4,0c.543,0,.658-.113.659-.649C-93.866,157.986-93.868,156.594-93.868,155.2Zm-34.993,34.922q0-2.065,0-4.13c0-.608-.1-.716-.688-.717q-4.2,0-8.4,0c-.542,0-.656.113-.657.651q0,4.223,0,8.446c0,.53.122.646.664.647q4.2,0,8.4,0c.571,0,.68-.109.681-.675Q-128.859,192.235-128.861,190.124Zm26.213-19.857a.692.692,0,0,0,.691-.663.69.69,0,0,0-.662-.69.689.689,0,0,0-.714.684A.693.693,0,0,0-102.648,170.266Zm-24.148,5.37a.656.656,0,0,0-.648-.686.652.652,0,0,0-.7.636.66.66,0,0,0,.671.709A.65.65,0,0,0-126.8,175.636Zm14.109,10.4a.659.659,0,0,0-.649-.687.658.658,0,0,0-.7.637.663.663,0,0,0,.672.71A.655.655,0,0,0-112.688,186.031Zm-5.853-27.047a.658.658,0,0,0-.69.648.654.654,0,0,0,.681.7.656.656,0,0,0,.666-.67A.651.651,0,0,0-118.541,158.985Z" transform="translate(140.093 -148.797)"/><path class="a" d="M-94.758,195.6h-9.783l-.018-.008a1.942,1.942,0,0,1-1.411-1.625c-.057-1.341-.041-2.707-.026-4.028l0-.43a.728.728,0,0,1,.757-.73.773.773,0,0,1,.8.747,2.4,2.4,0,0,1,.008.292c0,.03,0,.059,0,.089v.931c0,.881,0,1.793,0,2.689a.523.523,0,0,0,.112.384.525.525,0,0,0,.381.113c2.8-.005,5.693,0,8.586,0h0a.507.507,0,0,0,.371-.111.537.537,0,0,0,.114-.392c0-2.516,0-5.244,0-8.586a.5.5,0,0,0-.11-.367.483.483,0,0,0-.355-.108h0c-2.653,0-5.477,0-8.632,0h0a.481.481,0,0,0-.356.111.5.5,0,0,0-.108.367c.007.585.011,1.073,0,1.581a.781.781,0,0,1-.784.85h-.008a.788.788,0,0,1-.779-.862c-.012-.543-.012-1.107,0-1.675a1.886,1.886,0,0,1,1.936-1.947c.569-.01,1.146-.008,1.7-.005l.756,0h1.134v-9.626h-8.269c0,.286,0,.57-.007.852-.008.688-.016,1.337.014,2,.07,1.567-.017,2.744-.667,3.391s-1.81.726-3.357.652c-.169-.008-.342-.006-.524,0l-.192,0q0,.347,0,.682c0,.62.006,1.205-.009,1.8a.616.616,0,0,0,.352.648A2.112,2.112,0,0,1-112.1,184.9a2.149,2.149,0,0,1-.7,1.824,2.192,2.192,0,0,1-1.664.554,2.159,2.159,0,0,1-1.516-.828,2.164,2.164,0,0,1-.426-1.7,2.181,2.181,0,0,1,.982-1.473l.071-.045c.073-.046.268-.167.272-.219.024-.74.022-1.5.019-2.228q0-.3,0-.593h-3.606v2.682q0,2.87,0,5.741c0,.983-.225,1.209-1.2,1.209h-8.406c0,.334,0,.662-.008.987-.009.8-.018,1.558.02,2.321a2.215,2.215,0,0,1-1.463,2.47l-.016.006h-9.781l-.016-.006a2.441,2.441,0,0,1-1.445-1.445l-.006-.016V184.35l.008-.018a2.018,2.018,0,0,1,1.906-1.444c2.841-.007,5.869-.013,8.907,0a1.861,1.861,0,0,1,1.89,1.891c.014.668.011,1.348.009,2,0,.337,0,.675,0,1.012,0,.109.006.217.013.331q0,.035,0,.071h7.966v-8.053c-.256,0-.509,0-.76.008-.68.01-1.322.018-1.974-.026a3.649,3.649,0,0,1-1.523-.419,2.133,2.133,0,0,1-.991-2.028c0-.512,0-1.025,0-1.543v-.6c-.5-.062-.8-.054-1.066.412a2.024,2.024,0,0,1-2.427.832,2.128,2.128,0,0,1-1.507-2.085A2.164,2.164,0,0,1-129,172.637a2.183,2.183,0,0,1,2.431.858c.314.47.452.53.978.371v-2.721h-2.824q-2.945,0-5.89,0c-.882,0-1.124-.246-1.124-1.141q0-3.242,0-6.483v-2.913c-.308,0-.615,0-.912-.009-.752-.01-1.463-.019-2.182.021a2.23,2.23,0,0,1-2.469-1.463l-.006-.016v-9.781l.006-.016a2.45,2.45,0,0,1,1.445-1.445l.016-.006h9.783l.018.008a2.017,2.017,0,0,1,1.431,1.765c.031,1.222.023,2.465.014,3.667l0,.558a.742.742,0,0,1-.68.8.739.739,0,0,1-.6-.159.944.944,0,0,1-.285-.735c0-.747,0-1.507,0-2.242q0-.759,0-1.518c0-.488-.075-.561-.561-.562-2.851,0-5.693,0-8.446,0-.468,0-.55.079-.551.525,0,2.724,0,5.5,0,8.493,0,.459.08.54.536.54,3.008,0,5.786,0,8.493,0,.446,0,.526-.083.53-.55,0-.2,0-.407,0-.611,0-.287,0-.583,0-.876a.787.787,0,0,1,.77-.87c.483,0,.79.33.8.887.007.306.005.616,0,.916,0,.129,0,.257,0,.386,0,1.588-.707,2.3-2.291,2.3h-3.244v8.918h8.27V169.4c0-.145,0-.278,0-.412,0-.36,0-.721,0-1.081,0-.833,0-1.695.043-2.541a2.112,2.112,0,0,1,1.982-1.981c.648-.043,1.309-.042,1.948-.041.28,0,.56,0,.839,0,.123,0,.246,0,.364,0h.082l.009-.041a.45.45,0,0,0,.015-.082c0-.221,0-.441,0-.662,0-.468,0-.952.012-1.429a.467.467,0,0,0-.285-.5,2.131,2.131,0,0,1-1.015-2.488,2.167,2.167,0,0,1,2.093-1.57h0a2.175,2.175,0,0,1,2.079,1.583,2.16,2.16,0,0,1-.942,2.443l-.044.028c-.078.05-.287.182-.289.243-.025.636-.022,1.284-.019,1.91q0,.26,0,.52h3.608V160.51q0-2.982,0-5.965c0-.831.255-1.085,1.087-1.085h7.965c0-.307,0-.61.008-.91.009-.752.018-1.462-.02-2.182a2.21,2.21,0,0,1,1.463-2.471l.016-.006h9.781l.016.006a2.441,2.441,0,0,1,1.445,1.445l.006.016v9.783l-.007.017a2.063,2.063,0,0,1-1.994,1.451H-95.3q-1.971,0-3.942,0c-1.567,0-3.187,0-4.78,0a1.879,1.879,0,0,1-1.985-1.99c-.007-.687-.005-1.385,0-2.06q0-.571,0-1.142c0-.1-.006-.2-.012-.3l0-.049h-7.41v8.278h.874l.432,0c.315,0,.641,0,.962,0a2.272,2.272,0,0,1,2.418,2.416c.012.495.009.983.006,1.5q0,.309,0,.627l.742,0c.7,0,1.371,0,2.045.008a.508.508,0,0,0,.533-.306,2.128,2.128,0,0,1,2.5-.988,2.2,2.2,0,0,1,1.551,2.11,2.184,2.184,0,0,1-1.608,2.069,2.175,2.175,0,0,1-2.436-.965c-.166-.26-.243-.316-.278-.317-.789-.022-1.562-.02-2.381-.018h-.64v2.171h8.781c.823,0,1.074.255,1.075,1.091q0,3.572,0,7.145v3c.308,0,.615,0,.912.009.752.01,1.463.019,2.181-.021a2.231,2.231,0,0,1,2.469,1.463l.006.016v9.781l-.006.016a2.451,2.451,0,0,1-1.445,1.445Zm-9.744-.186h9.709a2.269,2.269,0,0,0,1.317-1.317v-9.711a2.04,2.04,0,0,0-2.28-1.329c-.725.04-1.439.031-2.194.021-.327,0-.665-.009-1-.009h-.093v-3.181q0-3.572,0-7.145c0-.736-.166-.905-.889-.906H-108.9V169.3h.825c.82,0,1.595,0,2.387.018.163,0,.3.2.429.4a1.993,1.993,0,0,0,2.23.885,2,2,0,0,0,1.471-1.892,2.016,2.016,0,0,0-1.421-1.93,1.943,1.943,0,0,0-2.283.9.692.692,0,0,1-.7.4c-.672-.012-1.337-.01-2.041-.008l-.835,0h-.093v-.093c0-.245,0-.485,0-.721,0-.516.006-1-.006-1.5a2.1,2.1,0,0,0-2.237-2.235c-.318-.008-.642-.006-.956,0l-.434,0h-1.06v-8.649h7.772l0,.088c0,.045,0,.09.008.135.006.1.012.2.013.309q0,.571,0,1.143c0,.675,0,1.372,0,2.058a1.7,1.7,0,0,0,1.8,1.807c1.593.005,3.213,0,4.78,0q1.971,0,3.942,0h.005a1.867,1.867,0,0,0,1.815-1.321v-9.71a2.258,2.258,0,0,0-1.317-1.317H-104.5a2.043,2.043,0,0,0-1.329,2.281c.038.726.029,1.439.02,2.194,0,.33-.008.663-.008,1v.093h-8.15c-.724,0-.9.177-.9.9q0,2.982,0,5.964v2.978h-3.98v-.093q0-.306,0-.612c0-.629-.006-1.279.019-1.919.006-.158.2-.282.375-.392l.043-.028a1.978,1.978,0,0,0,.864-2.236,1.989,1.989,0,0,0-1.9-1.448h0a1.983,1.983,0,0,0-1.915,1.437,1.925,1.925,0,0,0,.928,2.274.65.65,0,0,1,.379.662c-.013.474-.013.956-.012,1.423,0,.221,0,.442,0,.663a.544.544,0,0,1-.02.123c-.007.028-.015.063-.024.11l-.015.075h-.233c-.118,0-.239,0-.361,0-.28,0-.561,0-.842,0-.636,0-1.293,0-1.936.041a1.927,1.927,0,0,0-1.809,1.806c-.045.841-.044,1.7-.043,2.531,0,.361,0,.722,0,1.083,0,.133,0,.266,0,.41v.31H-134v-9.29h3.43c1.476,0,2.105-.632,2.106-2.111,0-.129,0-.258,0-.387,0-.3,0-.608,0-.91-.01-.443-.233-.706-.6-.706h-.015c-.358.007-.578.264-.588.688-.007.29-.005.585,0,.87,0,.2,0,.409,0,.613-.005.569-.166.733-.715.734-2.706,0-5.484,0-8.493,0-.559,0-.721-.163-.721-.726,0-2.991,0-5.769,0-8.493,0-.551.166-.71.736-.711,2.753,0,5.6,0,8.447,0,.592,0,.745.154.747.747q0,.759,0,1.518c0,.734,0,1.494,0,2.24a.778.778,0,0,0,.221.6.558.558,0,0,0,.456.115.561.561,0,0,0,.52-.613l0-.559c.009-1.2.017-2.442-.014-3.661-.018-.708-.42-1.2-1.3-1.592H-139.5a2.269,2.269,0,0,0-1.317,1.317V159.1a2.039,2.039,0,0,0,2.279,1.329c.725-.04,1.439-.031,2.194-.021.327,0,.665.009,1,.009h.093v3.1q0,3.242,0,6.483c0,.794.158.955.939.956q2.945,0,5.89,0h3.01V174l-.065.021c-.658.209-.88.134-1.253-.424a2,2,0,0,0-2.223-.783,1.979,1.979,0,0,0-1.415,1.882,1.945,1.945,0,0,0,1.378,1.906,1.841,1.841,0,0,0,2.209-.747c.354-.624.829-.561,1.332-.495l.081.011v.768c0,.518,0,1.031,0,1.544a1.938,1.938,0,0,0,.9,1.866,3.46,3.46,0,0,0,1.444.4c.644.044,1.283.035,1.959.026.282,0,.567-.008.855-.008h.093v8.424h-8.329l0-.089c0-.053-.005-.106-.008-.158-.006-.111-.012-.227-.013-.341,0-.338,0-.676,0-1.013,0-.656.005-1.334-.009-2a1.681,1.681,0,0,0-1.705-1.709c-3.038-.017-6.065-.011-8.906,0a1.822,1.822,0,0,0-1.728,1.315v9.71a2.258,2.258,0,0,0,1.317,1.317h9.711a2.047,2.047,0,0,0,1.329-2.282c-.038-.769-.029-1.528-.02-2.332,0-.354.008-.713.008-1.078v-.093h8.591c.885,0,1.018-.134,1.018-1.024q0-2.87,0-5.741V180h3.978v.093q0,.344,0,.685c0,.733,0,1.492-.019,2.234,0,.15-.185.262-.36.371l-.068.043a2,2,0,0,0-.9,1.349,1.981,1.981,0,0,0,.39,1.559,1.973,1.973,0,0,0,1.385.757,2,2,0,0,0,1.523-.507,1.965,1.965,0,0,0,.642-1.668,1.928,1.928,0,0,0-.939-1.48.8.8,0,0,1-.443-.813c.015-.587.012-1.172.009-1.79,0-.253,0-.511,0-.775v-.093h.093l.283,0c.186,0,.361,0,.536,0,1.8.087,2.7-.081,3.217-.6s.693-1.431.613-3.252c-.03-.666-.022-1.318-.014-2.008,0-.312.007-.626.007-.943v-.093h8.64v10h-1.32l-.757,0c-.558,0-1.134,0-1.7.005a1.709,1.709,0,0,0-1.754,1.765c-.011.565-.011,1.126,0,1.667.009.423.232.678.6.68h.006c.359,0,.588-.256.6-.67.013-.5.009-.991,0-1.574a.666.666,0,0,1,.162-.5.653.653,0,0,1,.488-.166h0c3.155,0,5.979,0,8.632,0h0a.654.654,0,0,1,.486.163.672.672,0,0,1,.165.5c0,3.341,0,6.069,0,8.585a.705.705,0,0,1-.168.523.678.678,0,0,1-.5.166h0c-2.892,0-5.78,0-8.585,0h0a.687.687,0,0,1-.511-.168.692.692,0,0,1-.166-.516c.006-.9,0-1.807,0-2.688v-.931c0-.03,0-.061,0-.091a2.221,2.221,0,0,0-.008-.27.592.592,0,0,0-.6-.582c-.367.024-.58.224-.583.547l0,.431c-.015,1.318-.031,2.682.026,4.018C-105.75,194.76-105.085,195.158-104.5,195.414Zm-30.148-1.206h-4.2c-.593,0-.756-.159-.757-.74,0-2.7,0-5.464,0-8.446,0-.591.155-.744.75-.744q4.2,0,8.4,0c.634,0,.78.152.781.809q0,1.475,0,2.95v2.376q0,1.513,0,3.027c0,.616-.153.767-.773.767Zm-.062-9.747h-4.145c-.49,0-.564.074-.564.559,0,2.982,0,5.745,0,8.446,0,.476.08.554.571.554q4.2,0,8.4,0c.521,0,.587-.066.588-.582q0-1.513,0-3.026v-2.377q0-1.475,0-2.95c0-.56-.062-.624-.6-.624Zm20.445,1.416h0a.763.763,0,0,1-.558-.234.769.769,0,0,1-.207-.573.749.749,0,0,1,.794-.726.752.752,0,0,1,.738.782A.75.75,0,0,1-114.268,185.877Zm0-1.347a.562.562,0,0,0-.58.549.586.586,0,0,0,.156.436.58.58,0,0,0,.424.176h0a.561.561,0,0,0,.58-.568h0a.563.563,0,0,0-.559-.593Zm-2.613-5.779-6.041,0c-.95,0-1.225-.273-1.226-1.215,0-3.978,0-7.882,0-11.6,0-.91.282-1.188,1.2-1.19q2.061,0,4.122,0h3.407q2.037,0,4.074,0c.931,0,1.2.269,1.2,1.192,0,3.684,0,7.494,0,11.649,0,.882-.287,1.166-1.179,1.166Zm-3.618-13.825-2.445,0c-.826,0-1.017.189-1.017,1,0,3.721,0,7.625,0,11.6,0,.846.185,1.028,1.04,1.029,3.744,0,7.648,0,11.6,0,.789,0,.993-.2.993-.981,0-4.155,0-7.966,0-11.649,0-.817-.191-1-1.016-1.006q-2.037,0-4.074,0H-120.5Zm-7.875,10.556h0a.762.762,0,0,1-.557-.232.771.771,0,0,1-.207-.574.74.74,0,0,1,.793-.724.751.751,0,0,1,.738.781A.741.741,0,0,1-128.376,175.481Zm0-1.346a.56.56,0,0,0-.579.548.587.587,0,0,0,.156.437.579.579,0,0,0,.423.175h0a.555.555,0,0,0,.579-.567h0a.562.562,0,0,0-.558-.592Zm24.826-4.683h0a.781.781,0,0,1-.777-.76.752.752,0,0,1,.23-.551.793.793,0,0,1,.579-.227.783.783,0,0,1,.751.785A.789.789,0,0,1-103.551,169.452Zm0-.186h0a.6.6,0,0,0,.594-.572.6.6,0,0,0-.572-.595.608.608,0,0,0-.443.174.568.568,0,0,0-.175.416.6.6,0,0,0,.593.577Zm-15.911-9.749a.764.764,0,0,1-.555-.225.765.765,0,0,1-.21-.57.747.747,0,0,1,.769-.737h.014a.748.748,0,0,1,.749.77.752.752,0,0,1-.757.762Zm.005-1.347a.567.567,0,0,0-.584.559.58.58,0,0,0,.158.433.578.578,0,0,0,.43.169.564.564,0,0,0,.574-.578.56.56,0,0,0-.566-.584h-.011Zm19.825,1.044h-4.2c-.625,0-.777-.151-.778-.766q0-4.2,0-8.4c0-.614.153-.764.776-.765q4.177,0,8.353,0c.651,0,.8.148.8.789q0,1.508,0,3.017v2.392q0,1.5,0,2.991c0,.589-.156.741-.752.742Zm-.059-9.747h-4.143c-.524,0-.59.065-.59.579q0,4.2,0,8.4c0,.509.072.58.592.58q4.2,0,8.4,0c.491,0,.566-.073.567-.556q0-1.5,0-2.99v-2.393q0-1.508,0-3.016c0-.541-.064-.6-.616-.6Z" transform="translate(141 -147.89)"/></g><g transform="translate(-103.226 185.665)"><path class="a" d="M270.482,555.863c.742,0,1.485-.008,2.227,0a1.1,1.1,0,0,1,1.206,1.214q.014,2.274,0,4.547a1.078,1.078,0,0,1-1.177,1.193q-2.3.018-4.594,0a1.082,1.082,0,0,1-1.184-1.188q-.016-2.274,0-4.547a1.106,1.106,0,0,1,1.248-1.22C268.966,555.857,269.724,555.862,270.482,555.863Zm2.024,1.425h-4.119v4.12h4.119Z" transform="translate(-266.859 -555.767)"/><path class="a" d="M269.534,562.014c-.766,0-1.533,0-2.3-.009a1.175,1.175,0,0,1-1.276-1.281c-.01-1.447-.01-2.935,0-4.549a1.2,1.2,0,0,1,1.34-1.312c.529-.005,1.066,0,1.586,0q.685,0,1.369,0c.507,0,1.032,0,1.548,0a1.19,1.19,0,0,1,1.3,1.307c.01,1.573.01,3.1,0,4.548a1.174,1.174,0,0,1-1.269,1.286C271.071,562.011,270.3,562.014,269.534,562.014Zm-1.352-6.969c-.293,0-.588,0-.88,0a1.014,1.014,0,0,0-1.156,1.128c-.01,1.613-.01,3.1,0,4.546a.987.987,0,0,0,1.092,1.1c1.531.012,3.076.012,4.592,0a.986.986,0,0,0,1.085-1.1c.01-1.445.01-2.974,0-4.546a1,1,0,0,0-1.115-1.122c-.515-.007-1.038-.005-1.545,0l-.681,0h-1.393Zm3.509,5.547h-4.3v-4.305h4.3Zm-4.119-.186h3.934v-3.934h-3.934Z" transform="translate(-265.952 -554.859)"/></g><g transform="translate(-138.22 150.671)"><path class="a" d="M-106.552,185.815c-.758,0-1.516.008-2.274,0a1.1,1.1,0,0,1-1.215-1.206q-.015-2.274,0-4.547a1.09,1.09,0,0,1,1.215-1.2q2.25-.013,4.5,0a1.1,1.1,0,0,1,1.24,1.228q.012,2.25,0,4.5a1.1,1.1,0,0,1-1.24,1.228C-105.067,185.822-105.809,185.815-106.552,185.815Zm-2.067-5.548v4.119h4.12v-4.119Z" transform="translate(110.141 -178.757)"/><path class="a" d="M-108.844,185c-.3,0-.594,0-.89,0a1.189,1.189,0,0,1-1.306-1.3c-.01-1.489-.01-3.019,0-4.549a1.183,1.183,0,0,1,1.308-1.3c1.431-.008,2.9-.009,4.5,0a1.194,1.194,0,0,1,1.332,1.32c.008,1.526.008,3.04,0,4.5A1.2,1.2,0,0,1-105.23,185c-.515.006-1.039,0-1.546,0h-2.068Zm1.337-6.968c-.759,0-1.5,0-2.224.006a1,1,0,0,0-1.123,1.111c-.01,1.528-.01,3.058,0,4.546a1,1,0,0,0,1.123,1.114c.525.007,1.058.005,1.575,0h1.381c.506,0,1.029,0,1.543,0a1.014,1.014,0,0,0,1.148-1.136c.008-1.461.008-2.975,0-4.5a1.01,1.01,0,0,0-1.147-1.136C-106.017,178.038-106.772,178.036-107.507,178.036Zm2.195,5.536h-4.306v-4.3h4.306Zm-4.12-.186h3.934v-3.934h-3.934Z" transform="translate(111.047 -177.85)"/></g><g transform="translate(-122.765 166.125)"><path class="a" d="M66.077,346.738c-.365,0-.7.015-1.037,0-.5-.027-.765-.28-.766-.691s.267-.679.763-.692a12.788,12.788,0,0,1,1.574.041.927.927,0,0,1,.853.842,2.936,2.936,0,0,1,.042.507q0,4.084,0,8.168c0,1.141-.348,1.483-1.505,1.484q-4.061,0-8.122,0c-1.053,0-1.422-.37-1.423-1.424q0-4.107,0-8.215c0-1.029.376-1.407,1.391-1.411,1.268,0,2.537,0,3.806,0a2.787,2.787,0,0,1,.416.027.625.625,0,0,1,.585.661.617.617,0,0,1-.567.675,4,4,0,0,1-.6.033c-1.188,0-2.375,0-3.6,0v8.221h8.188Z" transform="translate(-56.361 -345.249)"/><path class="a" d="M61.314,355.582l-4.342,0c-1.1,0-1.515-.412-1.516-1.517,0-3.018,0-5.7,0-8.215,0-1.078.417-1.5,1.484-1.5,1.141,0,2.3,0,3.421,0h.385a2.838,2.838,0,0,1,.429.029.768.768,0,0,1,.018,1.519,4.138,4.138,0,0,1-.615.034c-.889,0-1.778,0-2.682,0h-.823v8.036h8v-8.039l-.243,0c-.243,0-.473.006-.706-.006-.541-.029-.853-.315-.854-.783a.766.766,0,0,1,.853-.785,12.589,12.589,0,0,1,1.585.041,1.015,1.015,0,0,1,.935.918,3.025,3.025,0,0,1,.043.523c0,2.253,0,5.217,0,8.168,0,1.192-.389,1.575-1.6,1.577Zm-2.831-11.055c-.514,0-1.03,0-1.542,0-.97,0-1.3.336-1.3,1.318,0,2.51,0,5.2,0,8.214,0,1.007.324,1.33,1.33,1.331,2.984,0,5.64,0,8.122,0,1.108,0,1.411-.3,1.412-1.391,0-2.952,0-5.916,0-8.168a2.84,2.84,0,0,0-.041-.491.841.841,0,0,0-.771-.766,12.461,12.461,0,0,0-1.562-.04c-.434.011-.673.224-.672.6,0,.464.369.582.678.6.226.012.454.009.694.006l.339,0h.093v8.41H56.889v-8.407H57.9c.9,0,1.793,0,2.682,0a3.867,3.867,0,0,0,.587-.032.582.582,0,0,0-.018-1.152,2.657,2.657,0,0,0-.4-.026h-.385Z" transform="translate(-55.454 -344.342)"/></g><g transform="translate(-103.226 150.67)"><path class="a" d="M270.393,185.8c-.742,0-1.485.008-2.227,0a1.093,1.093,0,0,1-1.206-1.213q-.014-2.274,0-4.547a1.086,1.086,0,0,1,1.179-1.195q2.3-.019,4.594,0a1.078,1.078,0,0,1,1.182,1.188q.017,2.274,0,4.547a1.106,1.106,0,0,1-1.249,1.22C271.909,185.807,271.151,185.8,270.393,185.8Zm2.1-1.412v-4.119h-4.119v4.119Z" transform="translate(-266.859 -178.741)"/><path class="a" d="M268.129,184.99c-.29,0-.583,0-.872-.005a1.189,1.189,0,0,1-1.3-1.305c-.01-1.618-.01-3.106,0-4.549a1.176,1.176,0,0,1,1.271-1.287c1.5-.012,3.044-.012,4.6,0a1.174,1.174,0,0,1,1.274,1.28c.01,1.433.011,2.921,0,4.549a1.2,1.2,0,0,1-1.341,1.313c-.528.005-1.065,0-1.584,0-.232,0-.467,0-.7,0h-1.35Zm1.393-6.97c-.772,0-1.537,0-2.29.009a1,1,0,0,0-1.087,1.1c-.01,1.442-.011,2.929,0,4.546a1,1,0,0,0,1.114,1.121c.514.007,1.037.005,1.543,0h1.373c.519,0,1.055,0,1.582,0a1.014,1.014,0,0,0,1.157-1.128c.01-1.627.01-3.114,0-4.546a.986.986,0,0,0-1.09-1.1C271.054,178.024,270.284,178.021,269.522,178.021Zm2.156,5.554h-4.3V179.27h4.3Zm-4.119-.186h3.933v-3.934h-3.933Z" transform="translate(-265.952 -177.835)"/></g><g transform="translate(-138.219 185.664)"><path class="a" d="M-106.565,562.814c-.742,0-1.485.006-2.227,0a1.1,1.1,0,0,1-1.242-1.224q-.013-2.251,0-4.5a1.1,1.1,0,0,1,1.236-1.232q2.251-.012,4.5,0a1.1,1.1,0,0,1,1.22,1.246q.01,2.227,0,4.455a1.117,1.117,0,0,1-1.26,1.256C-105.08,562.819-105.822,562.814-106.565,562.814Zm2.076-5.536h-4.119V561.4h4.119Z" transform="translate(110.134 -555.756)"/><path class="a" d="M-108.827,562c-.291,0-.583,0-.873,0a1.2,1.2,0,0,1-1.334-1.316c-.009-1.458-.009-2.973,0-4.5a1.194,1.194,0,0,1,1.328-1.324c1.605-.008,3.078-.008,4.5,0a1.193,1.193,0,0,1,1.312,1.339c.007,1.477.007,2.976,0,4.456A1.207,1.207,0,0,1-105.244,562c-.515,0-1.039,0-1.545,0q-.681,0-1.362,0Zm1.409-6.968c-.737,0-1.5,0-2.287.006a1.01,1.01,0,0,0-1.144,1.14c-.008,1.528-.008,3.043,0,4.5a1.013,1.013,0,0,0,1.15,1.132c.516.005,1.04,0,1.547,0q.682,0,1.363,0c.506,0,1.029,0,1.543,0a1.025,1.025,0,0,0,1.168-1.164c.007-1.479.007-2.978,0-4.454a1.009,1.009,0,0,0-1.127-1.154C-105.926,555.037-106.661,555.035-107.418,555.035Zm2.116,5.548h-4.305v-4.3h4.305Zm-4.119-.186h3.934v-3.934h-3.934Z" transform="translate(111.041 -554.849)"/></g></g></svg>