<svg xmlns="http://www.w3.org/2000/svg" width="51.822" height="51.822" viewBox="0 0 51.822 51.822"><defs><style>.a{fill:#fff;}</style></defs><path class="a" d="M51.613,370.417l-5.459-7.1a1.011,1.011,0,0,0-.7-.391,23.71,23.71,0,0,1-7.27-1.786A12.192,12.192,0,0,0,33.447,360a8.588,8.588,0,0,0-6.522,3.25v-.038c.825-1.9,3.025-4.9,6.441-4.9a10.165,10.165,0,0,1,3.941.983,25.323,25.323,0,0,0,4.5,1.411,1.012,1.012,0,1,0,.416-1.981,23.24,23.24,0,0,1-4.166-1.311,12.07,12.07,0,0,0-4.689-1.126c-3.557,0-6.061,2.384-7.454,4.555-1.393-2.171-3.9-4.555-7.454-4.555a12.068,12.068,0,0,0-4.689,1.126,23.439,23.439,0,0,1-7.188,1.765,1.012,1.012,0,1,0,.2,2.014,25.555,25.555,0,0,0,7.736-1.9,10.16,10.16,0,0,1,3.941-.983c3.417,0,5.617,3,6.442,4.9v.037A8.589,8.589,0,0,0,18.377,360a12.2,12.2,0,0,0-4.736,1.138,23.706,23.706,0,0,1-7.269,1.786,1.012,1.012,0,0,0-.7.391l-5.459,7.1a1.012,1.012,0,0,0,.8,1.629h49.8a1.012,1.012,0,0,0,.8-1.629Zm-18.167-8.391a10.281,10.281,0,0,1,3.988.994,25.592,25.592,0,0,0,7.38,1.873l3.932,5.115c-6.764-.146-9.975-1.423-12.142-2.285a8.2,8.2,0,0,0-3.157-.831,4.18,4.18,0,0,0-3.684,2.61l-.014.029-.231.491H26.924v-3.029C27.758,365.067,29.986,362.026,33.447,362.026ZM7.01,364.893a25.607,25.607,0,0,0,7.38-1.873,10.279,10.279,0,0,1,3.987-.994c3.461,0,5.689,3.042,6.523,4.967v3.029H22.306l-.23-.491-.014-.029a4.181,4.181,0,0,0-3.684-2.61,8.2,8.2,0,0,0-3.157.831c-2.167.862-5.378,2.139-12.142,2.285Zm8.959,4.711a6.689,6.689,0,0,1,2.408-.687,2.053,2.053,0,0,1,1.675,1.105H14.9C15.283,369.876,15.637,369.736,15.969,369.6Zm15.8.418a2.053,2.053,0,0,1,1.674-1.105,6.686,6.686,0,0,1,2.409.688c.331.132.686.272,1.071.417Zm0,0" transform="translate(-0.001 -320.224)"/><path class="a" d="M436.551,386.79l.037,0c.034,0,.067.005.1.005a1.012,1.012,0,0,0,.1-2.02l-.036,0a1.012,1.012,0,0,0-.2,2.014Zm0,0" transform="translate(-391.545 -345.826)"/><path class="a" d="M213.266,24.9a1.012,1.012,0,0,0-.914,1.162c.419,2.732,1.874,4.6,4,5.239q-.073.574-.134,1.15l-.539,5.139a1.012,1.012,0,0,0,.9,1.112.975.975,0,0,0,.107.006,1.012,1.012,0,0,0,1.005-.907l.539-5.139q.059-.56.13-1.117c4.708-.058,7.582-3.06,9.021-9.408.16-.706.354-1.529.578-2.445a1.011,1.011,0,0,0-.4-1.067l.4-.228a1.01,1.01,0,0,0,.479-.632c1.768-7.038,4.357-16.393,4.383-16.487A1.012,1.012,0,0,0,231.784,0c-.343.019-8.474.607-15.158,11.481-.083.135-.164.268-.244.4a1.013,1.013,0,0,0-.131.682l.507,3.121h-1.719a1.012,1.012,0,0,0-.931.615,22.054,22.054,0,0,0-1.851,7.086,1.012,1.012,0,0,0,.287.776Zm13.31-8.045-2.7,1.545a1.012,1.012,0,0,0,.434,1.889l1.4.094c-.112.47-.213.907-.3,1.307-1.461,6.446-4.159,7.719-6.75,7.826A51.685,51.685,0,0,1,229.647,5.2C228.764,8.461,227.558,12.969,226.576,16.859Zm-10.86.855h2.232a1.013,1.013,0,0,0,1-1.175l-.638-3.928.041-.067a24.062,24.062,0,0,1,9.1-9.029,16.255,16.255,0,0,1,1.581-.726,54.091,54.091,0,0,0-12.383,26.475,3.68,3.68,0,0,1-2.01-2.34h1.035a1.012,1.012,0,0,0,.723-1.72l-2.08-2.124A19.951,19.951,0,0,1,215.716,17.714Zm0,0" transform="translate(-190.771 -0.001)"/></svg>