<svg xmlns="http://www.w3.org/2000/svg" width="50.856" height="63.567" viewBox="0 0 50.856 63.567"><defs><style>.a{fill:#fff;}</style></defs><g transform="translate(11.857 11.857)"><g transform="translate(0)"><path class="a" d="M172.519,106.1H169.7a9.811,9.811,0,0,0-.656-1.583l1.994-1.994a1.32,1.32,0,0,0,0-1.866l-2.347-2.347a1.321,1.321,0,0,0-1.866,0L164.83,100.3a9.8,9.8,0,0,0-1.583-.656v-2.82a1.321,1.321,0,0,0-1.32-1.32h-3.319a1.321,1.321,0,0,0-1.32,1.32v2.82a9.817,9.817,0,0,0-1.583.656l-1.994-1.994a1.321,1.321,0,0,0-1.866,0l-2.347,2.347a1.319,1.319,0,0,0,0,1.866l1.994,1.994a9.8,9.8,0,0,0-.656,1.583h-2.82a1.321,1.321,0,0,0-1.32,1.32v3.319a1.321,1.321,0,0,0,1.32,1.32h2.82a9.809,9.809,0,0,0,.656,1.583l-1.994,1.994a1.321,1.321,0,0,0,0,1.866l2.347,2.347a1.321,1.321,0,0,0,1.866,0l1.994-1.994a9.8,9.8,0,0,0,1.583.656v2.82a1.321,1.321,0,0,0,1.32,1.32h3.319a1.321,1.321,0,0,0,1.32-1.32v-2.82a9.806,9.806,0,0,0,1.583-.656l1.994,1.994a1.321,1.321,0,0,0,1.866,0l2.347-2.347a1.32,1.32,0,0,0,0-1.866l-1.994-1.994a9.8,9.8,0,0,0,.656-1.583h2.82a1.321,1.321,0,0,0,1.32-1.32v-3.319A1.321,1.321,0,0,0,172.519,106.1Zm-.543,4.1h-2.987a.931.931,0,0,0-.907.719,7.961,7.961,0,0,1-.991,2.392.931.931,0,0,0,.132,1.15l2.112,2.112-1.579,1.579-2.112-2.112a.931.931,0,0,0-1.15-.133,7.969,7.969,0,0,1-2.392.991.931.931,0,0,0-.719.907v2.987h-2.233V117.8a.931.931,0,0,0-.719-.907,7.958,7.958,0,0,1-2.392-.991.932.932,0,0,0-1.15.133l-2.112,2.112-1.579-1.579,2.112-2.112a.931.931,0,0,0,.133-1.15,7.966,7.966,0,0,1-.991-2.392.931.931,0,0,0-.907-.719H148.56v-2.233h2.987a.931.931,0,0,0,.907-.719,7.965,7.965,0,0,1,.991-2.392.931.931,0,0,0-.133-1.15l-2.112-2.112,1.579-1.579,2.112,2.112a.931.931,0,0,0,1.15.133,7.962,7.962,0,0,1,2.392-.991.931.931,0,0,0,.719-.907V97.367h2.233v2.987a.931.931,0,0,0,.719.907,7.967,7.967,0,0,1,2.392.991.932.932,0,0,0,1.15-.133l2.112-2.112,1.579,1.579-2.112,2.112a.931.931,0,0,0-.132,1.15,7.965,7.965,0,0,1,.991,2.392.931.931,0,0,0,.907.719h2.987Z" transform="translate(-146.697 -95.505)"/></g></g><g transform="translate(20.439 20.439)"><path class="a" d="M220.809,164.628a4.989,4.989,0,1,0,4.989,4.989A4.994,4.994,0,0,0,220.809,164.628Zm0,8.115a3.126,3.126,0,1,1,3.126-3.126A3.13,3.13,0,0,1,220.809,172.743Z" transform="translate(-215.82 -164.628)"/></g><g transform="translate(0 24.497)"><path class="a" d="M55.212,197.308H52.123a.931.931,0,1,0,0,1.862h3.089a.931.931,0,0,0,0-1.862Z" transform="translate(-51.192 -197.308)"/></g><g transform="translate(45.904 24.497)"><g transform="translate(0)"><path class="a" d="M424.947,197.308h-3.089a.931.931,0,0,0,0,1.862h3.089a.931.931,0,0,0,0-1.862Z" transform="translate(-420.927 -197.308)"/></g></g><g transform="translate(7.175 39.634)"><path class="a" d="M112.755,319.505a.931.931,0,0,0-1.317,0l-2.184,2.184a.931.931,0,0,0,1.317,1.317l2.184-2.184A.931.931,0,0,0,112.755,319.505Z" transform="translate(-108.981 -319.232)"/></g><g transform="translate(39.634 7.175)"><g transform="translate(0)"><path class="a" d="M374.2,58.064a.931.931,0,0,0-1.317,0L370.7,60.248a.931.931,0,0,0,1.317,1.317l2.184-2.184A.931.931,0,0,0,374.2,58.064Z" transform="translate(-370.423 -57.791)"/></g></g><g transform="translate(24.497)"><g transform="translate(0)"><path class="a" d="M249.432,0a.931.931,0,0,0-.931.931V4.02a.931.931,0,1,0,1.862,0V.931A.931.931,0,0,0,249.432,0Z" transform="translate(-248.501)"/></g></g><g transform="translate(39.634 39.634)"><g transform="translate(0)"><path class="a" d="M374.2,321.689l-2.184-2.184a.931.931,0,0,0-1.317,1.317l2.184,2.184a.931.931,0,1,0,1.317-1.317Z" transform="translate(-370.423 -319.232)"/></g></g><g transform="translate(7.175 7.175)"><path class="a" d="M112.755,60.248l-2.184-2.184a.931.931,0,0,0-1.317,1.317l2.184,2.184a.931.931,0,0,0,1.317-1.317Z" transform="translate(-108.981 -57.791)"/></g><g transform="translate(26.669 6.772)"><path class="a" d="M283.335,70.92a18.727,18.727,0,0,0-16.292-16.368.931.931,0,1,0-.226,1.849,16.772,16.772,0,0,1,14.667,14.736.931.931,0,0,0,.924.823.964.964,0,0,0,.11-.006A.931.931,0,0,0,283.335,70.92Z" transform="translate(-265.999 -54.545)"/></g><g transform="translate(6.721 6.773)"><path class="a" d="M141.784,74.46a.93.93,0,0,0-1.041.807,16.78,16.78,0,0,1-7.765,12.139,6.265,6.265,0,0,0-2.96,5.328v3.832H118.052V92.649a6.132,6.132,0,0,0-2.869-5.187,16.845,16.845,0,0,1,6.794-31.05.931.931,0,0,0-.229-1.848A18.706,18.706,0,0,0,114.2,89.045a4.257,4.257,0,0,1,1.987,3.6V96.7a2.424,2.424,0,0,0-1.63,2.286v1.327a2.407,2.407,0,0,0,.517,1.49,2.406,2.406,0,0,0-.517,1.49v1.327a2.424,2.424,0,0,0,2.421,2.421h2.928v2.105a2.2,2.2,0,0,0,2.2,2.2h3.848a2.2,2.2,0,0,0,2.2-2.2v-2.105h2.928a2.424,2.424,0,0,0,2.421-2.421v-1.327a2.407,2.407,0,0,0-.517-1.49,2.406,2.406,0,0,0,.517-1.49V98.987a2.423,2.423,0,0,0-1.63-2.286V92.733a4.412,4.412,0,0,1,2.088-3.751A18.635,18.635,0,0,0,142.59,75.5.93.93,0,0,0,141.784,74.46ZM126.3,109.148a.344.344,0,0,1-.34.34h-3.848a.344.344,0,0,1-.34-.34v-2.105H126.3Zm5.349-4.526a.566.566,0,0,1-.559.559H116.981a.566.566,0,0,1-.559-.559v-1.327a.566.566,0,0,1,.559-.559h14.108a.566.566,0,0,1,.559.559Zm0-4.307a.566.566,0,0,1-.559.559H116.981a.566.566,0,0,1-.559-.559V98.987a.566.566,0,0,1,.559-.559h14.108a.566.566,0,0,1,.559.559v1.327Z" transform="translate(-105.328 -54.556)"/></g></svg>