<svg xmlns="http://www.w3.org/2000/svg" width="56.487" height="52.72" viewBox="0 0 56.487 52.72"><defs><style>.a{fill:#fff;}</style></defs><g transform="translate(0 0)"><g transform="translate(0 0)"><path class="a" d="M343.441,443.754a.939.939,0,0,0-1.141.684l-.941,3.766a.941.941,0,0,0,.685,1.142.914.914,0,0,0,.229.028.942.942,0,0,0,.912-.713l.941-3.766A.942.942,0,0,0,343.441,443.754Z" transform="translate(-303.673 -396.654)"/><path class="a" d="M28.243,159.188a.933.933,0,0,0,.36-.071l10.356-4.285a.942.942,0,0,0-.721-1.74l-9.994,4.137L1.883,146.32v-.313a.941.941,0,0,0-1.883,0v.941a.94.94,0,0,0,.582.87l27.3,11.3A.932.932,0,0,0,28.243,159.188Z" transform="translate(0 -130.945)"/><path class="a" d="M115.363,244.752a.94.94,0,0,0-1.261-.427,21.942,21.942,0,0,1-9,2.052v-8.446a.941.941,0,1,0-1.883,0v8.437c-11.69-.373-15.462-7.454-16-8.633v-6.394a.941.941,0,1,0-1.883,0v6.59a.952.952,0,0,0,.067.35c.164.408,4.171,10.006,18.762,10.006a24.2,24.2,0,0,0,10.773-2.275A.939.939,0,0,0,115.363,244.752Z" transform="translate(-75.92 -206.864)"/><path class="a" d="M376.408,452.266a.941.941,0,0,0-.941.941v2.824a.941.941,0,0,0,1.883,0v-2.824A.941.941,0,0,0,376.408,452.266Z" transform="translate(-334.044 -404.253)"/><path class="a" d="M55.545,31.189a.941.941,0,0,0-.941.941v.311l-11.3,4.65v-1.7l12.6-5.214a.942.942,0,0,0,0-1.74l-27.3-11.3a.942.942,0,0,0-.719,0l-27.3,11.3a.941.941,0,0,0,0,1.74l27.3,11.3a.939.939,0,0,0,.719,0l9.872-4.085a.941.941,0,1,0-.719-1.739l-9.512,3.935L3.4,29.306l24.84-10.279,24.84,10.279L42.274,33.779,31.921,29.913a2.248,2.248,0,0,0,.088-.607c0-1.583-1.654-2.824-3.766-2.824s-3.766,1.241-3.766,2.824,1.654,2.824,3.766,2.824a4.55,4.55,0,0,0,2.436-.671l10.744,4.012v3.016h0V58.664a2.824,2.824,0,1,0,1.883,0V53.32a11.438,11.438,0,0,0,3.714-4.878.952.952,0,0,0,.052-.308v-6.59a.941.941,0,0,0-1.883,0v6.416a9.63,9.63,0,0,1-1.883,2.844V39.127l12.6-5.185a.941.941,0,0,0,.583-.871V32.13A.941.941,0,0,0,55.545,31.189Zm-27.3-.942c-1.149,0-1.883-.557-1.883-.941s.733-.941,1.883-.941,1.883.557,1.883.941S29.393,30.247,28.243,30.247ZM42.365,62.256a.941.941,0,1,1,.941-.941A.942.942,0,0,1,42.365,62.256Z" transform="translate(0 -17.068)"/><path class="a" d="M402.921,444.441a.941.941,0,0,0-1.826.458l.941,3.766a.942.942,0,0,0,.912.713.912.912,0,0,0,.229-.028.941.941,0,0,0,.685-1.142Z" transform="translate(-356.818 -396.657)"/></g></g></svg>