<svg xmlns="http://www.w3.org/2000/svg" width="51.948" height="51.948" viewBox="0 0 51.948 51.948"><defs><style>.a{fill:#fff;}</style></defs><path class="a" d="M46.281,0A5.666,5.666,0,0,0,41.3,8.368l-9.283,9.284a7.506,7.506,0,0,0-9.251,0l-7.243-7.243A3.728,3.728,0,0,0,16.057,8.5a3.778,3.778,0,1,0-3.778,3.778,3.728,3.728,0,0,0,1.907-.536l7.243,7.243a7.508,7.508,0,0,0,0,9.251L9.468,40.2a5.61,5.61,0,1,0,1.181,1.49L22.765,29.573A7.512,7.512,0,0,0,26.447,31.1v9.6a5.667,5.667,0,1,0,1.889,0V31.1a7.512,7.512,0,0,0,3.682-1.529l7.243,7.243a3.726,3.726,0,0,0-.536,1.908A3.778,3.778,0,1,0,42.5,34.947a3.728,3.728,0,0,0-1.907.536l-7.243-7.243a7.508,7.508,0,0,0,0-9.251l9.129-9.129A5.663,5.663,0,1,0,46.281,0ZM10.39,8.5a1.889,1.889,0,1,1,1.889,1.889A1.891,1.891,0,0,1,10.39,8.5ZM5.667,48.17a3.778,3.778,0,1,1,3.778-3.778A3.782,3.782,0,0,1,5.667,48.17Zm25.5-1.889A3.778,3.778,0,1,1,27.391,42.5,3.782,3.782,0,0,1,31.169,46.281Zm-3.778-17a5.667,5.667,0,1,1,5.667-5.667A5.673,5.673,0,0,1,27.391,29.28Zm17,9.445A1.889,1.889,0,1,1,42.5,36.836,1.891,1.891,0,0,1,44.392,38.725Zm1.889-29.28a3.778,3.778,0,1,1,3.778-3.778A3.782,3.782,0,0,1,46.281,9.445Z"/></svg>