<?xml version="1.0" encoding="iso-8859-1"?>
<!-- Generator: Adobe Illustrator 21.0.0, SVG Export Plug-In . SVG Version: 6.00 Build 0)  -->
<svg version="1.1" id="Layer_1" xmlns="http://www.w3.org/2000/svg" xmlns:xlink="http://www.w3.org/1999/xlink" x="0px" y="0px"
	 viewBox="0 0 215.066 148" style="enable-background:new 0 0 215.066 148;" xml:space="preserve">
<path style="fill:#B3B3B3;" d="M205.066,82.5c4.687,0,8.5-3.813,8.5-8.5s-3.813-8.5-8.5-8.5H30.523l49.486-49.49
	c3.313-3.313,3.313-8.705,0-12.02c-1.605-1.605-3.739-2.49-6.009-2.49c-2.274,0-4.408,0.885-6.009,2.489L3.99,67.99
	C2.384,69.596,1.5,71.731,1.5,74c0,2.27,0.884,4.404,2.49,6.009l64,64c1.606,1.605,3.741,2.49,6.012,2.49
	c2.27,0,4.403-0.884,6.007-2.49c1.606-1.605,2.491-3.739,2.491-6.009s-0.884-4.404-2.491-6.011L30.523,82.5H205.066z"/>
</svg>
