<?xml version="1.0" encoding="iso-8859-1"?>
<!-- Generator: Adobe Illustrator 21.0.0, SVG Export Plug-In . SVG Version: 6.00 Build 0)  -->
<svg version="1.1" id="Layer_1" xmlns="http://www.w3.org/2000/svg" xmlns:xlink="http://www.w3.org/1999/xlink" x="0px" y="0px"
	 viewBox="0 0 215.066 148" style="enable-background:new 0 0 215.066 148;" xml:space="preserve">
<path style="fill:#B3B3B3;" d="M10,65.498c-4.687,0-8.5,3.813-8.5,8.5s3.813,8.5,8.5,8.5h174.543l-49.486,49.49
	c-3.313,3.313-3.313,8.705,0,12.02c1.605,1.605,3.739,2.49,6.009,2.49c2.274,0,4.408-0.885,6.009-2.489l64.001-64.001
	c1.606-1.606,2.49-3.741,2.49-6.01c0-2.27-0.884-4.404-2.49-6.009l-64-64c-1.606-1.605-3.741-2.49-6.012-2.49
	c-2.27,0-4.403,0.884-6.007,2.49c-1.606,1.605-2.491,3.739-2.491,6.009s0.884,4.404,2.491,6.011l49.486,49.489H10z"/>
</svg>
