<?xml version="1.0" encoding="iso-8859-1"?>
<!-- Generator: Adobe Illustrator 21.0.0, SVG Export Plug-In . SVG Version: 6.00 Build 0)  -->
<svg version="1.1" id="Layer_1" xmlns="http://www.w3.org/2000/svg" xmlns:xlink="http://www.w3.org/1999/xlink" x="0px" y="0px"
	 viewBox="0 0 112.638 163.282" style="enable-background:new 0 0 112.638 163.282;" xml:space="preserve">
<g>
	<g>
		<path style="fill:#00AA5F;" d="M56.289,38.681c-10.55,0-19.133,8.578-19.133,19.122c0,10.55,8.583,19.132,19.133,19.132
			c10.544,0,19.122-8.582,19.122-19.132C75.411,47.26,66.833,38.681,56.289,38.681z M69.096,57.804
			c0,7.062-5.745,12.807-12.807,12.807s-12.807-5.745-12.807-12.807s5.745-12.806,12.807-12.806S69.096,50.742,69.096,57.804z"/>
		<path style="fill:#00AA5F;" d="M92.261,21.832C82.518,12.099,69.577,6.739,55.823,6.739c-13.762,0-26.708,5.36-36.454,15.093
			C1.374,39.841-0.888,73.664,14.518,94.199l41.305,59.641l41.214-59.545C112.492,73.702,110.261,39.842,92.261,21.832z
			 M55.823,142.739L19.645,90.508C5.95,72.238,7.914,42.236,23.846,26.304c8.552-8.535,19.908-13.236,31.978-13.236
			c12.061,0,23.412,4.701,31.965,13.236c15.938,15.941,17.87,45.98,4.135,64.282L55.823,142.739z"/>
	</g>
</g>
</svg>
